/* XPM */
static const char * inno_xpm[] = {
"22 22 266 2",
"  	c None",
". 	c #9EC5E0",
"+ 	c #45A0E1",
"@ 	c #389FE6",
"# 	c #359DE6",
"$ 	c #2794E3",
"% 	c #1283DE",
"& 	c #016BD6",
"* 	c #1864BA",
"= 	c #9AB1CB",
"- 	c #51A8E4",
"; 	c #64B8EC",
"> 	c #7BC5F0",
", 	c #7FC8F1",
"' 	c #74C4F0",
") 	c #5EB9EE",
"! 	c #3FA9E9",
"~ 	c #1D94E3",
"{ 	c #0279D8",
"] 	c #005EB4",
"^ 	c #1B5594",
"/ 	c #4DA9E7",
"( 	c #7AC4F0",
"_ 	c #A1D8F5",
": 	c #B6E1F8",
"< 	c #B7E2F8",
"[ 	c #A6DCF7",
"} 	c #8CD0F3",
"| 	c #68C1F0",
"1 	c #3DADEB",
"2 	c #1196E5",
"3 	c #007BCE",
"4 	c #005DA7",
"5 	c #0C457F",
"6 	c #41A0E2",
"7 	c #6FBFEF",
"8 	c #A5DAF6",
"9 	c #CCEAFA",
"0 	c #DFF3FD",
"a 	c #DCF1FC",
"b 	c #C6E9F9",
"c 	c #7FCDF3",
"d 	c #53BAEE",
"e 	c #24A5E9",
"f 	c #018EDC",
"g 	c #0073BB",
"h 	c #005391",
"i 	c #0E3B68",
"j 	c #4C9ADB",
"k 	c #47A9E9",
"l 	c #87CDF3",
"m 	c #BBE3F8",
"n 	c #E1F3FC",
"o 	c #F9FDFE",
"p 	c #F1F9FE",
"q 	c #D5EFFB",
"r 	c #B1E0F8",
"s 	c #88D0F4",
"t 	c #5CBDEF",
"u 	c #2BAAEA",
"v 	c #0396E2",
"w 	c #007FC5",
"x 	c #0063A0",
"y 	c #003F72",
"z 	c #607387",
"A 	c #218CDF",
"B 	c #55B2EB",
"C 	c #8ED1F4",
"D 	c #BFE6F9",
"E 	c #F4FAFD",
"F 	c #F2FAFE",
"G 	c #EBF8FD",
"H 	c #D2EDFB",
"I 	c #AFDFF7",
"J 	c #86D0F4",
"K 	c #5ABCEF",
"L 	c #2AA9EA",
"M 	c #0296E1",
"N 	c #0085C9",
"O 	c #006CA8",
"P 	c #004C7F",
"Q 	c #002349",
"R 	c #78A6D8",
"S 	c #1A8BE0",
"T 	c #51B3EC",
"U 	c #94D3F3",
"V 	c #E6F4FB",
"W 	c #D1EDFA",
"X 	c #D7EFFB",
"Y 	c #D3EDFB",
"Z 	c #BEE5F8",
"` 	c #9FD9F6",
" .	c #7ACAF2",
"..	c #4FB9EE",
"+.	c #21A6EA",
"@.	c #0193DE",
"#.	c #0077B5",
"$.	c #006195",
"%.	c #004770",
"&.	c #002947",
"*.	c #4B606D",
"=.	c #397DCB",
"-.	c #1289DF",
";.	c #54B2E7",
">.	c #BFE7F8",
",.	c #B7E0F5",
"'.	c #A7DCF7",
").	c #B3E1F9",
"!.	c #B0E0F8",
"~.	c #A0DAF6",
"{.	c #85CFF3",
"].	c #63C0F0",
"^.	c #3BB0EC",
"/.	c #0F9FE9",
"(.	c #2495CC",
"_.	c #DDF1F9",
":.	c #E4F2F7",
"<.	c #E5F1F5",
"[.	c #E2EFF4",
"}.	c #7796A4",
"|.	c #1460B7",
"1.	c #007CD0",
"2.	c #A4DAF3",
"3.	c #98D3EF",
"4.	c #6DC5F1",
"5.	c #81CDF3",
"6.	c #8BD1F4",
"7.	c #7ACBF2",
"8.	c #64C0F0",
"9.	c #45B4EC",
"0.	c #20A5EA",
"a.	c #1E97D4",
"b.	c #E0F5FD",
"c.	c #FEFFFF",
"d.	c #FFFFFF",
"e.	c #87A1AD",
"f.	c #155BA2",
"g.	c #74BADA",
"h.	c #B2E0F5",
"i.	c #26A2E1",
"j.	c #45B4ED",
"k.	c #56BBEF",
"l.	c #5EBEF0",
"m.	c #50B8EE",
"n.	c #3CB0EC",
"o.	c #1FA4E8",
"p.	c #068BCD",
"q.	c #86C3E0",
"r.	c #91C1D9",
"s.	c #A5C7D7",
"t.	c #88A2AD",
"u.	c #2B7396",
"v.	c #E4F8FF",
"w.	c #3494C4",
"x.	c #0599E5",
"y.	c #18A2E9",
"z.	c #27A8EB",
"A.	c #2EAAEB",
"B.	c #2CAAEB",
"C.	c #109FE8",
"D.	c #0095E1",
"E.	c #008CD3",
"F.	c #007DBE",
"G.	c #066292",
"H.	c #C5DFE9",
"I.	c #708D9C",
"J.	c #E0F5FC",
"K.	c #F2FFFF",
"L.	c #0B72AC",
"M.	c #0087CF",
"N.	c #0091DB",
"O.	c #0195E1",
"P.	c #0297E4",
"Q.	c #0296E3",
"R.	c #0094DF",
"S.	c #008ED7",
"T.	c #0087CC",
"U.	c #0177B1",
"V.	c #387EA1",
"W.	c #E9F8FD",
"X.	c #FCFFFF",
"Y.	c #C4D8DF",
"Z.	c #EAF8FC",
"`.	c #86A0AC",
" +	c #3B5A6B",
".+	c #FAFEFF",
"++	c #F8FFFF",
"@+	c #065B8E",
"#+	c #0072B3",
"$+	c #0080C1",
"%+	c #0084C8",
"&+	c #0086CB",
"*+	c #0084C9",
"=+	c #006EA9",
"-+	c #22729A",
";+	c #CDE6F1",
">+	c #FDFFFF",
",+	c #C9DCE4",
"'+	c #002539",
")+	c #E3F9FF",
"!+	c #F1FFFF",
"~+	c #2F4E5F",
"{+	c #7895A2",
"]+	c #89ADBD",
"^+	c #00426C",
"/+	c #00588C",
"(+	c #006096",
"_+	c #00588B",
":+	c #0C628D",
"<+	c #6CA3BE",
"[+	c #C7DFEA",
"}+	c #9EB6C0",
"|+	c #05344D",
"1+	c #002F4A",
"2+	c #D8F6FF",
"3+	c #365465",
"4+	c #94B0BC",
"5+	c #EBF6FB",
"6+	c #BDD2DB",
"7+	c #BBD2DB",
"8+	c #DBEBF1",
"9+	c #F0FDFF",
"0+	c #5E7D8C",
"a+	c #002F4C",
"b+	c #003655",
"c+	c #012943",
"d+	c #375869",
"e+	c #4D6C7C",
"f+	c #FBFEFF",
"g+	c #F1FAFE",
"h+	c #9EB7C2",
"i+	c #032C44",
"j+	c #003857",
"k+	c #003250",
"l+	c #002742",
"m+	c #0D273D",
"n+	c #C1C4C7",
"o+	c #6C7E89",
"p+	c #BFD8E1",
"q+	c #F7FEFF",
"r+	c #F7FDFE",
"s+	c #E3F1F6",
"t+	c #90ABB8",
"u+	c #052C41",
"v+	c #00314E",
"w+	c #002A46",
"x+	c #00213B",
"y+	c #1C2F43",
"z+	c #D1D2D2",
"A+	c #96A2A8",
"B+	c #264658",
"C+	c #708F9E",
"D+	c #94B0BD",
"E+	c #82A0AE",
"F+	c #496A7A",
"G+	c #153648",
"H+	c #001D33",
"I+	c #00213A",
"J+	c #00223D",
"K+	c #00203A",
"L+	c #001932",
"M+	c #14273D",
"N+	c #9FA4AA",
"O+	c #AEB2B7",
"P+	c #A7ACB1",
"Q+	c #B2B6BB",
"                                            ",
"                                            ",
"              . + @ # $ % & * =             ",
"            - ; > , ' ) ! ~ { ] ^           ",
"          / ( _ : < [ } | 1 2 3 4 5         ",
"        6 7 8 9 0 a b [ c d e f g h i       ",
"      j k l m n o p q r s t u v w x y z     ",
"      A B C D E F G H I J K L M N O P Q     ",
"    R S T U V W X Y Z `  ...+.@.#.$.%.&.*.  ",
"    =.-.;.>.,.'.).!.~.{.].^./.(._.:.<.[.}.  ",
"    |.1.2.3.4.5.6.s 7.8.9.0.a.b.c.d.d.d.e.  ",
"    f.g.h.i.j.k.l.t m.n.o.p.q.r.s.d.d.d.t.  ",
"    u.v.w.x.y.z.A.B.+.C.D.E.F.G.H.d.d.d.t.  ",
"  I.J.K.L.M.N.O.P.Q.R.S.T.U.V.W.X.Y.Z.d.`.  ",
"   +.+++@+#+$+%+&+&+*+=+-+;+.+>+,+'+)+!+~+  ",
"  {+d.c.]+^+/+(+_+:+<+[+>+d.c.}+|+1+2+3+    ",
"  4+d.d.d.5+6+7+8+c.d.d.d.9+0+a+b+c+d+      ",
"  e+f+d.d.d.d.d.d.d.d.g+h+i+j+k+l+m+n+      ",
"  o+p+q+d.d.d.c.r+s+t+u+v+v+w+x+y+z+        ",
"    A+B+C+D+E+F+G+H+I+J+K+L+M+N+            ",
"                    O+P+Q+                  ",
"                                            "};
