/* XPM */
static const char * components_xpm[] = {
"22 22 100 2",
"  	c None",
". 	c #869B2F",
"+ 	c #7D8C3D",
"@ 	c #84943E",
"# 	c #84953E",
"$ 	c #7C8653",
"% 	c #818C54",
"& 	c #7C845D",
"* 	c #909673",
"= 	c #96B128",
"- 	c #95AE2D",
"; 	c #7C8167",
"> 	c #92987C",
", 	c #8EA140",
"' 	c #898D7A",
") 	c #8D9E46",
"! 	c #95A74C",
"~ 	c #838774",
"{ 	c #8D995C",
"] 	c #AAB57E",
"^ 	c #B2C079",
"/ 	c #9DBA23",
"( 	c #A2BF24",
"_ 	c #000000",
": 	c #030303",
"< 	c #040404",
"[ 	c #565656",
"} 	c #595959",
"| 	c #646464",
"1 	c #707070",
"2 	c #777777",
"3 	c #7C7C7C",
"4 	c #7F7F7F",
"5 	c #808080",
"6 	c #818181",
"7 	c #828282",
"8 	c #838383",
"9 	c #848484",
"0 	c #8D9E47",
"a 	c #8E8E8E",
"b 	c #90A33F",
"c 	c #919191",
"d 	c #939393",
"e 	c #93AA35",
"f 	c #93AA36",
"g 	c #949494",
"h 	c #94A840",
"i 	c #94AD31",
"j 	c #96B128",
"k 	c #96B12B",
"l 	c #989898",
"m 	c #98B229",
"n 	c #98B427",
"o 	c #99B227",
"p 	c #99B426",
"q 	c #9B9B9B",
"r 	c #9CBC17",
"s 	c #9CBC18",
"t 	c #9CBC1A",
"u 	c #9D9D9D",
"v 	c #9DBC19",
"w 	c #9EBF16",
"x 	c #9F9F9F",
"y 	c #9FC012",
"z 	c #9FC113",
"A 	c #A0A0A0",
"B 	c #A0C30E",
"C 	c #A0C30F",
"D 	c #A0C310",
"E 	c #A1C50C",
"F 	c #A2C50C",
"G 	c #A2C60C",
"H 	c #A5A5A5",
"I 	c #A5C226",
"J 	c #A7A7A7",
"K 	c #A8A8A8",
"L 	c #A9A9A9",
"M 	c #AAAAAA",
"N 	c #AEAEAE",
"O 	c #AFAFAF",
"P 	c #B2B2B2",
"Q 	c #B5B5B5",
"R 	c #BABABA",
"S 	c #BBBBBB",
"T 	c #BFBFBF",
"U 	c #C1C1C1",
"V 	c #C4C4C4",
"W 	c #C7C7C7",
"X 	c #C9C9C9",
"Y 	c #CBCBCB",
"Z 	c #CCCCCC",
"` 	c #D3D3D3",
" .	c #D4D4D4",
"..	c #D7D7D7",
"+.	c #D8D8D8",
"@.	c #DBDBDB",
"#.	c #DFDFDF",
"$.	c #E0E0E0",
"%.	c #E2E2E2",
"&.	c #FFFFFF",
"                                            ",
"                T                           ",
"                _ _                         ",
"                  @.                        ",
"                  _ d                       ",
"                    P _ O                   ",
"                    _ d                     ",
"_ _           +.    O P _                   ",
"  _ $._         +.O   _ d                   ",
"      _ $._     O O     P _                 ",
"          d q _         _ d                 ",
"            _ d q _       P _               ",
"          O     _ d q _   _ d               ",
"                    _ d q _ _ _ W N <       ",
"                        _ _ ..m G G f a     ",
"                          _ h G G c d n <   ",
"                          Y C G c H 1 G 6   ",
"                          O G c H V [ E u   ",
"                          _ p d 1 [ V } _   ",
"                            g b z B | V _   ",
"                              _ 7 l : _ V _ ",
"                                        _ _ "};
