/* XPM */
static const char * custom_msg_xpm[] = {
"22 22 239 2",
"  	c None",
". 	c #CC3433",
"+ 	c #D86362",
"@ 	c #DB7272",
"# 	c #DB7270",
"$ 	c #D04443",
"% 	c #C61D1C",
"& 	c #D04140",
"* 	c #DD7675",
"= 	c #EDB7B7",
"- 	c #F3D3D3",
"; 	c #F1CDCC",
"> 	c #F1CBCA",
", 	c #F1CACA",
"' 	c #F2D0CF",
") 	c #F1C8C8",
"! 	c #E59595",
"~ 	c #D34F4E",
"{ 	c #D03231",
"] 	c #DE7272",
"^ 	c #EEB6B5",
"/ 	c #F0BEBF",
"( 	c #EDB4B4",
"_ 	c #EDB2B2",
": 	c #EDB1B1",
"< 	c #ECB1B2",
"[ 	c #ECB1B1",
"} 	c #EEB6B6",
"| 	c #EFBABA",
"1 	c #E17F7E",
"2 	c #D03736",
"3 	c #D23533",
"4 	c #E38382",
"5 	c #EAA5A5",
"6 	c #EAA4A3",
"7 	c #EAA4A4",
"8 	c #EAA3A3",
"9 	c #EBA3A3",
"0 	c #ECA2A1",
"a 	c #ECA0A0",
"b 	c #EBA1A1",
"c 	c #ECAEAE",
"d 	c #E17A79",
"e 	c #D02B29",
"f 	c #E17674",
"g 	c #EBA3A2",
"h 	c #E89694",
"i 	c #E89695",
"j 	c #E99694",
"k 	c #EA9593",
"l 	c #E99290",
"m 	c #DF8C8B",
"n 	c #D59897",
"o 	c #D5A7A6",
"p 	c #DD9A99",
"q 	c #E99391",
"r 	c #EA9F9D",
"s 	c #DD6361",
"t 	c #CD0E0B",
"u 	c #D94543",
"v 	c #E78785",
"w 	c #E88784",
"x 	c #E88583",
"y 	c #E88482",
"z 	c #E98582",
"A 	c #E8817E",
"B 	c #CC7E7C",
"C 	c #D39F9D",
"D 	c #DFC1C1",
"E 	c #EADEDE",
"F 	c #E0E2E2",
"G 	c #D9A6A5",
"H 	c #E5807E",
"I 	c #E68583",
"J 	c #E78A88",
"K 	c #D21D1A",
"L 	c #D2120F",
"M 	c #E26E6C",
"N 	c #E67C7A",
"O 	c #D47C7A",
"P 	c #D18988",
"Q 	c #D18987",
"R 	c #D28887",
"S 	c #C98685",
"T 	c #D5B2B1",
"U 	c #ECDBDB",
"V 	c #F0EBEB",
"W 	c #F9FCFC",
"X 	c #FFFFFF",
"Y 	c #F6FBFB",
"Z 	c #DEA9A8",
"` 	c #E16F6D",
" .	c #E47674",
"..	c #E67D7B",
"+.	c #D73330",
"@.	c #D00703",
"#.	c #D51511",
"$.	c #E57472",
"%.	c #DF6866",
"&.	c #D38B8A",
"*.	c #E8DDDD",
"=.	c #F7EFEE",
"-.	c #F6EDEC",
";.	c #F7EEEE",
">.	c #DDD6D6",
",.	c #F6F6F6",
"'.	c #F4FAFA",
").	c #DE9F9E",
"!.	c #E15F5D",
"~.	c #E46B69",
"{.	c #E36B69",
"].	c #D82927",
"^.	c #D30602",
"/.	c #D71713",
"(.	c #E56360",
"_.	c #D9615E",
":.	c #D9AEAD",
"<.	c #E3E3E3",
"[.	c #F5F8F8",
"}.	c #C9B7B7",
"|.	c #D16765",
"1.	c #DF3F3A",
"2.	c #D71813",
"3.	c #D50904",
"4.	c #D40601",
"5.	c #D80E08",
"6.	c #E4534F",
"7.	c #D75451",
"8.	c #D8ACAA",
"9.	c #E0E0E0",
"0.	c #FEFEFE",
"a.	c #F6F8F8",
"b.	c #CBC8C8",
"c.	c #CA3F3B",
"d.	c #D80200",
"e.	c #D70600",
"f.	c #DC0500",
"g.	c #DD0701",
"h.	c #DC100A",
"i.	c #D31C17",
"j.	c #CB7976",
"k.	c #FFFEFE",
"l.	c #DFDEDE",
"m.	c #FDFDFD",
"n.	c #E9F1F1",
"o.	c #C3625F",
"p.	c #D40000",
"q.	c #DB0600",
"r.	c #DA0600",
"s.	c #E10400",
"t.	c #E20600",
"u.	c #DC0700",
"v.	c #DE0500",
"w.	c #D10400",
"x.	c #BB423D",
"y.	c #BF9493",
"z.	c #F3ECEC",
"A.	c #E0D8D8",
"B.	c #B77472",
"C.	c #D7BAB9",
"D.	c #F9EEEE",
"E.	c #FAF9F9",
"F.	c #EBF3F3",
"G.	c #D26360",
"H.	c #DD0000",
"I.	c #E70100",
"J.	c #E70400",
"K.	c #DF0700",
"L.	c #DE0700",
"M.	c #E00700",
"N.	c #E40000",
"O.	c #C02621",
"P.	c #EEDBDB",
"Q.	c #CBBFBE",
"R.	c #DF0D06",
"S.	c #D10000",
"T.	c #B92621",
"U.	c #C98A89",
"V.	c #ECD3D2",
"W.	c #F6EEEE",
"X.	c #E4EDED",
"Y.	c #D1615D",
"Z.	c #E00000",
"`.	c #E10300",
" +	c #E90400",
".+	c #E10700",
"++	c #E40300",
"@+	c #C61F19",
"#+	c #E1C0BF",
"$+	c #C69B9A",
"%+	c #DE110B",
"&+	c #E20700",
"*+	c #BF0D07",
"=+	c #C55A56",
"-+	c #C78A88",
";+	c #CF3B36",
">+	c #E30200",
",+	c #E00600",
"'+	c #DF0300",
")+	c #E60400",
"!+	c #D80400",
"~+	c #CB423E",
"{+	c #C9221C",
"]+	c #DF0801",
"^+	c #E40500",
"/+	c #E10000",
"(+	c #D80000",
"_+	c #DC0200",
":+	c #E00400",
"<+	c #DD0100",
"[+	c #DA0000",
"}+	c #E70E09",
"|+	c #E20A02",
"1+	c #E40400",
"2+	c #E10600",
"3+	c #DF0500",
"4+	c #DD0200",
"5+	c #D90000",
"6+	c #D70000",
"7+	c #E3322C",
"8+	c #E20A03",
"9+	c #E30600",
"0+	c #E30500",
"a+	c #DF0400",
"b+	c #DE0300",
"c+	c #DE0200",
"d+	c #DB0100",
"e+	c #D50000",
"f+	c #DD302C",
"g+	c #E01711",
"h+	c #DC0000",
"i+	c #DB0000",
"j+	c #D00100",
"k+	c #D61715",
"l+	c #D40A09",
"m+	c #D30200",
"n+	c #D30100",
"o+	c #D60000",
"p+	c #D20000",
"                                            ",
"                  . + @ # $ %               ",
"            & * = - ; > , ' ) ! ~           ",
"        { ] ^ / ( _ : < [ [ [ } | 1 2       ",
"      3 4 : 5 6 7 6 6 6 8 9 0 a b c d e     ",
"      f g h i j i h j k l m n o p q r s t   ",
"    u l v w x x y z A B C D E F G H I J K   ",
"  L M N f O P Q R S T U V W X Y Z `  ...+.@.",
"  #.$.%.&.*.=.-.;.>.,.X X X X '.).!.~.{.].^.",
"  /.(._.:.X X X X <.X X X X X [.}.|.1.2.3.4.",
"  5.6.7.8.X X X X 9.0.X X X X a.b.c.d.e.e.f.",
"  g.h.i.j.[.k.X X l.m.X X X X n.o.p.q.r.r.s.",
"  t.u.v.w.x.y.z.A.B.C.D.E.X X F.G.H.u.u.u.I.",
"  J.K.L.M.N.O.P.Q.R.S.T.U.V.W.X.Y.Z.K.K.`.  ",
"     +.+.+++@+#+$+%+&+++Z.*+=+-+;+>+,+'+Z.  ",
"     +)+.+&+!+~+{+]+.+.+.+^+/+(+_+:+<+[+    ",
"      }+|+.+&+N.1+.+.+.+2+,+3+:+4+5+6+      ",
"      7+8+9+0+`.:+:+a+b+c+c+d+6+e+p.        ",
"    f+g+a+4+H.h+i+i+[+(+6+p.S.j+            ",
"  k+l+m+n+p.      (+o+e+p+                  ",
"                                            ",
"                                            "};
