/* XPM */
static const char * files_xpm[] = {
"22 22 172 2",
"  	c None",
". 	c #039603",
"+ 	c #11A311",
"@ 	c #23AC23",
"# 	c #039903",
"$ 	c #B9B9B9",
"% 	c #B3B3B4",
"& 	c #B4B4B4",
"* 	c #B4B5B5",
"= 	c #B5B6B6",
"- 	c #B6B6B6",
"; 	c #B5B6B5",
"> 	c #739F74",
", 	c #099709",
"' 	c #62C962",
") 	c #AEE7AD",
"! 	c #B7E9B7",
"~ 	c #AEE9AD",
"{ 	c #61C961",
"] 	c #109C10",
"^ 	c #F3F4F4",
"/ 	c #E8E9EA",
"( 	c #EBECEC",
"_ 	c #ECEDEE",
": 	c #EEEFEF",
"< 	c #EFF0F0",
"[ 	c #F0F1F1",
"} 	c #F2F2F2",
"| 	c #D7E8D8",
"1 	c #1CA31C",
"2 	c #4FCA4F",
"3 	c #84DF7E",
"4 	c #A1DD98",
"5 	c #EBF4EA",
"6 	c #A3DE98",
"7 	c #88E07E",
"8 	c #52C950",
"9 	c #079E07",
"0 	c #F1F2F2",
"a 	c #E8E9E9",
"b 	c #EAEBEC",
"c 	c #ECEDED",
"d 	c #EDEEEE",
"e 	c #EEEEEE",
"f 	c #EFEFEF",
"g 	c #F2F1F3",
"h 	c #65B965",
"i 	c #03AA03",
"j 	c #4FCE48",
"k 	c #54C636",
"l 	c #96D27D",
"m 	c #FFFFFF",
"n 	c #9AD47D",
"o 	c #5FC936",
"p 	c #58CF48",
"q 	c #0DAF0C",
"r 	c #009100",
"s 	c #F2F3F3",
"t 	c #EAEBEB",
"u 	c #F0F0F0",
"v 	c #F2F0F3",
"w 	c #159E15",
"x 	c #0BB40A",
"y 	c #6ABF61",
"z 	c #86CA6D",
"A 	c #B4D8A1",
"B 	c #B7D9A1",
"C 	c #8DCC6D",
"D 	c #73C161",
"E 	c #0FB40B",
"F 	c #009700",
"G 	c #F4F5F5",
"H 	c #ECECEC",
"I 	c #F3F3F3",
"J 	c #EEEBEE",
"K 	c #029E02",
"L 	c #11B011",
"M 	c #E1DFE2",
"N 	c #FFFFFE",
"O 	c #E0DEE2",
"P 	c #18B012",
"Q 	c #009B00",
"R 	c #F5F6F6",
"S 	c #F5F5F5",
"T 	c #EFECEF",
"U 	c #0FA70F",
"V 	c #06B205",
"W 	c #5EB94F",
"X 	c #7EC759",
"Y 	c #B2D898",
"Z 	c #B7D998",
"` 	c #88CA59",
" .	c #6ABD4F",
"..	c #0CB306",
"+.	c #009F00",
"@.	c #F6F7F7",
"#.	c #F3F1F3",
"$.	c #51B251",
"%.	c #00B300",
"&.	c #0BAF00",
"*.	c #29B300",
"=.	c #85CB59",
"-.	c #8CCE59",
";.	c #3AB900",
">.	c #1BB400",
",.	c #02B500",
"'.	c #F7F8F8",
").	c #F8F8F8",
"!.	c #F9F9F9",
"~.	c #BDCEBD",
"{.	c #02AF02",
"].	c #01B000",
"^.	c #12AA00",
"/.	c #6BC54F",
"(.	c #E8F2E4",
"_.	c #71C74F",
":.	c #1DAF00",
"<.	c #07B200",
"[.	c #00AE00",
"}.	c #F8F9F9",
"|.	c #FAFAFA",
"1.	c #EEEFEE",
"2.	c #87B287",
"3.	c #06B806",
"4.	c #0BA506",
"5.	c #1BA712",
"6.	c #0DA906",
"7.	c #00B100",
"8.	c #00B200",
"9.	c #FBFBFB",
"0.	c #EBEBEB",
"a.	c #A1B5A1",
"b.	c #3DA83D",
"c.	c #0CB70C",
"d.	c #02BC02",
"e.	c #0BB90B",
"f.	c #49B249",
"g.	c #1E411E",
"h.	c #F6F6F6",
"i.	c #FCFCFC",
"j.	c #DDDADD",
"k.	c #BEBBBE",
"l.	c #B5B2B5",
"m.	c #E3E1E3",
"n.	c #FAFBFB",
"o.	c #F7F7F7",
"p.	c #FDFDFD",
"q.	c #FEFEFE",
"r.	c #EBEBEC",
"s.	c #E9EBEB",
"t.	c #EDEDED",
"u.	c #D7D8D8",
"v.	c #D2D3D3",
"w.	c #D0D1D2",
"x.	c #ADB0B1",
"y.	c #D7D7D7",
"z.	c #D5D6D6",
"A.	c #D8D8D7",
"B.	c #B5B7B6",
"C.	c #DFDFDF",
"D.	c #C8C9C9",
"E.	c #E5E6E5",
"F.	c #C5C6C5",
"G.	c #D5D5D5",
"H.	c #C3C4C4",
"I.	c #C1C2C1",
"J.	c #D4D5D6",
"K.	c #ABAEAE",
"L.	c #BDBDBD",
"M.	c #BABABA",
"N.	c #B1B3B4",
"O.	c #959A9C",
"                            . + @ + #       ",
"      $ % & & * = - - ; > , ' ) ! ~ { ]     ",
"      ^ / ( _ : < [ } | 1 2 3 4 5 6 7 8 9   ",
"      0 a b c d e f g h i j k l m n o p q r ",
"      s t c d : u 0 v w x y z A m B C D E F ",
"      G H d < [ 0 I J K L M m m N m m O P Q ",
"      R d < [ } I S T U V W X Y m Z `  ...+.",
"      @.f [ } I G @.#.$.%.&.*.=.m -.;.>.,.r ",
"      '.[ } I G @.).!.~.{.].^./.(._.:.<.[.  ",
"      }.0 I G @.).!.|.1.2.3.%.4.5.6.7.8.    ",
"      !.s G @.).!.|.|.9.0.a.b.c.d.e.f.g.    ",
"      |.^ h.'.!.|.9.9.i.i.S j.k.l.k.m.      ",
"      n.S o.}.|.|.9.i.i.p.q.m q.p.m m       ",
"      9.h.).!.|.9.i.i.p.p.q.q.p.i.i.m       ",
"      i.@.}.|.9.9.i.p.p.q.q.9.S e r.s.      ",
"      i.o.!.|.9.i.i.p.q.q.|.t.u.v.w.x.      ",
"      i.).|.9.9.i.p.p.q.9.f y.z.A.B.        ",
"      i.).|.9.i.i.p.q.q.o.C.D.E.F.          ",
"      p.!.|.9.i.p.p.q.p.I G.H.I.            ",
"      m i.q.q.m m m m m h.J.K.              ",
"      L.$ $ $ $ $ $ M.$ N.O.                ",
"                                            "};
