/* XPM */
static const char * folder_xpm[] = {
"22 22 167 2",
"  	c None",
". 	c #039603",
"+ 	c #11A311",
"@ 	c #23AC23",
"# 	c #039903",
"$ 	c #10A110",
"% 	c #61C861",
"& 	c #AEE7AD",
"* 	c #B7E9B7",
"= 	c #AEE9AD",
"- 	c #119E11",
"; 	c #079907",
"> 	c #51CA50",
", 	c #84DF7E",
"' 	c #A1DD98",
") 	c #EBF4EA",
"! 	c #A3DE98",
"~ 	c #88E07E",
"{ 	c #52C950",
"] 	c #079E07",
"^ 	c #009000",
"/ 	c #0CAD0C",
"( 	c #4FCE48",
"_ 	c #54C636",
": 	c #96D27D",
"< 	c #FFFFFF",
"[ 	c #9AD47D",
"} 	c #5FC936",
"| 	c #58CF48",
"1 	c #0DAF0C",
"2 	c #009100",
"3 	c #A3C4EE",
"4 	c #A4C6EE",
"5 	c #A0C3ED",
"6 	c #009600",
"7 	c #0CB40B",
"8 	c #6ABF61",
"9 	c #86CA6D",
"0 	c #B4D8A1",
"a 	c #B7D9A1",
"b 	c #8DCC6D",
"c 	c #73C161",
"d 	c #0FB40B",
"e 	c #009700",
"f 	c #A7C7EC",
"g 	c #A4C5EC",
"h 	c #9CC1EC",
"i 	c #9ABFEC",
"j 	c #9BC0ED",
"k 	c #92B0E1",
"l 	c #029D02",
"m 	c #12B012",
"n 	c #E1DFE2",
"o 	c #FFFFFE",
"p 	c #E0DEE2",
"q 	c #18B012",
"r 	c #009B00",
"s 	c #98BDE9",
"t 	c #97BDE9",
"u 	c #95BBE9",
"v 	c #95BCEA",
"w 	c #91B3E3",
"x 	c #09A20E",
"y 	c #07B205",
"z 	c #5EB94F",
"A 	c #7EC759",
"B 	c #B2D898",
"C 	c #B7D998",
"D 	c #88CA59",
"E 	c #6ABD4F",
"F 	c #0CB307",
"G 	c #009F00",
"H 	c #78A7E1",
"I 	c #7BA9E0",
"J 	c #79A4DC",
"K 	c #299849",
"L 	c #00B500",
"M 	c #0BAF00",
"N 	c #29B300",
"O 	c #85CB59",
"P 	c #8CCE59",
"Q 	c #3AB900",
"R 	c #1BB400",
"S 	c #1A9431",
"T 	c #5A95DE",
"U 	c #5F98E0",
"V 	c #6299E0",
"W 	c #6199E0",
"X 	c #4985AA",
"Y 	c #01AF02",
"Z 	c #02B100",
"` 	c #12AA00",
" .	c #6BC54F",
"..	c #E8F2E4",
"+.	c #71C74F",
"@.	c #1DAF00",
"#.	c #06B200",
"$.	c #01AE05",
"%.	c #3F7E9F",
"&.	c #5E99E5",
"*.	c #629BE7",
"=.	c #649DE7",
"-.	c #5F96DC",
";.	c #36807E",
">.	c #02B505",
",.	c #0BA606",
"'.	c #1BA812",
").	c #0DA906",
"!.	c #00B300",
"~.	c #01B203",
"{.	c #347F7B",
"].	c #5991D9",
"^.	c #67A0ED",
"/.	c #6AA3EF",
"(.	c #6BA3EE",
"_.	c #6BA1EC",
":.	c #6498DD",
"<.	c #447C98",
"[.	c #1A943A",
"}.	c #06B30C",
"|.	c #01BB01",
"1.	c #05B50A",
"2.	c #1B953B",
"3.	c #457C98",
"4.	c #6296DD",
"5.	c #679FEC",
"6.	c #70A6F3",
"7.	c #72A9F4",
"8.	c #72A8F3",
"9.	c #6FA3ED",
"0.	c #6491D4",
"a.	c #567BB7",
"b.	c #5275AE",
"c.	c #567AB6",
"d.	c #638FD3",
"e.	c #6FA4ED",
"f.	c #79AEF5",
"g.	c #7AAFF5",
"h.	c #79AEF3",
"i.	c #79AEF4",
"j.	c #7AAEF4",
"k.	c #78ADF2",
"l.	c #82B4F7",
"m.	c #82B5F6",
"n.	c #80B2F4",
"o.	c #80B2F5",
"p.	c #8BBBF8",
"q.	c #8ABBF8",
"r.	c #86B7F5",
"s.	c #94C1F9",
"t.	c #92C0F9",
"u.	c #8DBCF6",
"v.	c #9DC7FA",
"w.	c #9AC6FA",
"x.	c #94C1F7",
"y.	c #94C2F7",
"z.	c #A2CCFB",
"A.	c #9BC7F7",
"B.	c #9CC7F8",
"C.	c #ABD3FC",
"D.	c #A3CDF9",
"E.	c #A4CEF9",
"F.	c #9FCDFD",
"G.	c #99C9FA",
"H.	c #6F94B9",
"I.	c #688CAF",
"J.	c #688BAF",
"                            . + @ + #       ",
"                          $ % & * = % -     ",
"                        ; > , ' ) ! ~ { ]   ",
"                      ^ / ( _ : < [ } | 1 2 ",
"    3 4 4 4 5         6 7 8 9 0 < a b c d e ",
"    f f f f g h i j k l m n < < o < < p q r ",
"    s t t t s t u v w x y z A B < C D E F G ",
"  H I I I I I I I I J K L M N O < P Q R L S ",
"T U V W W W W W W W W X Y Z `  ...+.@.#.$.%.",
"&.*.=.=.=.=.=.=.=.=.=.-.;.>.L ,.'.).!.~.{.].",
"^./.(.(.(.(.(.(.(.(.(._.:.<.[.}.|.1.2.3.4.5.",
"6.7.8.8.8.8.8.8.8.8.8.8.8.9.0.a.b.c.d.e.7.6.",
"f.g.h.h.h.h.h.h.h.h.h.h.h.i.j.h.k.i.j.h.g.f.",
"l.m.n.n.n.n.n.n.n.n.n.n.n.n.n.n.o.n.n.n.m.l.",
"p.q.r.r.r.r.r.r.r.r.r.r.r.r.r.r.r.r.r.r.q.p.",
"s.t.u.u.u.u.u.u.u.u.u.u.u.u.u.u.u.u.u.u.t.s.",
"v.w.x.y.y.y.y.y.y.y.y.y.y.y.y.y.y.y.y.x.w.v.",
"  z.A.B.B.B.B.B.B.B.B.B.B.B.B.B.B.B.B.A.z.  ",
"  C.D.E.E.E.E.E.E.E.E.E.E.E.E.E.E.E.E.D.C.  ",
"  F.G.G.G.G.G.G.G.G.G.G.G.G.G.G.G.G.G.G.F.  ",
"  H.I.J.J.J.J.J.J.J.J.J.J.J.J.J.J.J.J.I.H.  ",
"                                            "};
