/* XPM */
static const char * icon_xpm[] = {
"22 22 118 2",
"  	c None",
". 	c #E1E1E2",
"+ 	c #DCDDDD",
"@ 	c #DEDFDF",
"# 	c #DFE0E0",
"$ 	c #E0E0E0",
"% 	c #E1E2E2",
"& 	c #E2E3E3",
"* 	c #E3E3E3",
"= 	c #E3E4E4",
"- 	c #E4E5E5",
"; 	c #E8E8E8",
"> 	c #E9EAEA",
", 	c #E7E8E9",
"' 	c #EBECEC",
") 	c #EDEEEE",
"! 	c #EFEFEF",
"~ 	c #EFF0F0",
"{ 	c #F0F1F1",
"] 	c #F1F2F2",
"^ 	c #F2F2F2",
"/ 	c #F6F6F6",
"( 	c #E5E5E6",
"_ 	c #EAEBEB",
": 	c #EEEEEE",
"< 	c #EEEFEF",
"[ 	c #F0F0F0",
"} 	c #F2F3F3",
"| 	c #F3F3F3",
"1 	c #F3F4F4",
"2 	c #F4F4F4",
"3 	c #FCFCFD",
"4 	c #F8F8F8",
"5 	c #D6D6D6",
"6 	c #ECEDED",
"7 	c #F4F5F5",
"8 	c #F5F5F5",
"9 	c #827E76",
"0 	c #FAFAFA",
"a 	c #F5F6F6",
"b 	c #F7F7F7",
"c 	c #AEAAA6",
"d 	c #7F786D",
"e 	c #FBFBFB",
"f 	c #A7A095",
"g 	c #462F0B",
"h 	c #FDFDFD",
"i 	c #E2E2E2",
"j 	c #F9F9F9",
"k 	c #FCFDFF",
"l 	c #B7B0A5",
"m 	c #5C3D0E",
"n 	c #AEABA5",
"o 	c #FFFFFF",
"p 	c #FEFEFE",
"q 	c #DADADA",
"r 	c #BBB5AB",
"s 	c #885D1D",
"t 	c #8D7C62",
"u 	c #FCFCFC",
"v 	c #FDFDFE",
"w 	c #D4CFC7",
"x 	c #93651E",
"y 	c #6E4D1A",
"z 	c #E4E3E3",
"A 	c #E2E4E7",
"B 	c #774F11",
"C 	c #5C3500",
"D 	c #C7C5C1",
"E 	c #DDDDDD",
"F 	c #F6F7F7",
"G 	c #F7F7F8",
"H 	c #6E5835",
"I 	c #643F07",
"J 	c #958D81",
"K 	c #E1E1E1",
"L 	c #F7F6F6",
"M 	c #B5B1A9",
"N 	c #402600",
"O 	c #6E6454",
"P 	c #F8F9F9",
"Q 	c #8F8B83",
"R 	c #675F54",
"S 	c #F7F8F8",
"T 	c #FBFBFC",
"U 	c #D7D7D8",
"V 	c #CDCDCD",
"W 	c #FCFDFD",
"X 	c #DBDBDB",
"Y 	c #DED8C8",
"Z 	c #9E998D",
"` 	c #FAFAFB",
" .	c #C3C3C3",
"..	c #DDD4BC",
"+.	c #BFAA6A",
"@.	c #DBD7C7",
"#.	c #DEDEDE",
"$.	c #CEC2A4",
"%.	c #BAA979",
"&.	c #BCB293",
"*.	c #EDEDEC",
"=.	c #F1F1F1",
"-.	c #EDEDED",
";.	c #CCCCCC",
">.	c #C9C9C9",
",.	c #E7E7E7",
"'.	c #ECEDEF",
").	c #DEDFE2",
"!.	c #D9DADC",
"~.	c #D8D8D8",
"{.	c #D3D3D3",
"].	c #C8C8C8",
"^.	c #E6E6E6",
"/.	c #BEBEBE",
"(.	c #E8E9E9",
"_.	c #E4E4E4",
":.	c #E5E5E5",
"<.	c #D2D2D2",
"                                            ",
"      . + @ # $ % % & & * = = - - - ;       ",
"      > , > ' ' ) ) ! ~ { { ] ] ^ ^ /       ",
"      ( _ ' ) : < [ { ] } | 1 2 3 2 4       ",
"      5 6 ) < [ { ] } | 2 7 8 } 9 ^ 0       ",
"      = ) < ~ ] ^ 1 2 a / b { c d 8 e       ",
"      ] < ~ ] } 2 8 / b 4 / f g % 0 h       ",
"      i { ] } 2 8 b b j k l m n o 0 p       ",
"      q } } 2 8 b 4 j 3 r s t u e u p       ",
"      : | 2 8 b 4 0 v w x y z u u u o       ",
"      } 2 8 b 4 0 u A B C D o h h h o       ",
"      E a F 4 0 0 G H I J o h p p p o       ",
"      K L b j 0 u M N O P p p p h h o       ",
"      b F j 0 e e Q R o p p u 0 4 b u       ",
"      : S j 0 T U V W p h e / ^ [ [ 8       ",
"      X j 0 e Y Z ` p p e 8 ! ; i +  .      ",
"      _ j 0 ..+.@.o o p b [ 5 $ #. .        ",
"      e 4 $.%.&.*.[ ^ =.-.; ;./ >.          ",
"      ,.b '.).!.~.X $ i K + {.].            ",
"      E 0 e e u h p o j =.^./.              ",
"      (.& _._._.:.^.^.i #.<.                ",
"                                            "};
