/* XPM */
static const char * ini_xpm[] = {
"22 22 102 2",
"  	c None",
". 	c #E1E1E2",
"+ 	c #DCDDDD",
"@ 	c #DEDFDF",
"# 	c #DFE0E0",
"$ 	c #E2E2E2",
"% 	c #E2E3E3",
"& 	c #E1E2E2",
"* 	c #E3E3E3",
"= 	c #E3E4E4",
"- 	c #E4E5E5",
"; 	c #E8E8E8",
"> 	c #EBECED",
", 	c #E7E8E9",
"' 	c #EAEBEB",
") 	c #DBDBDB",
"! 	c #DDDEDE",
"~ 	c #EFEFEF",
"{ 	c #EFF0F0",
"] 	c #F0F1F1",
"^ 	c #F1F2F2",
"/ 	c #F2F2F2",
"( 	c #F6F6F6",
"_ 	c #ECEDED",
": 	c #BCBCBC",
"< 	c #F4F4F4",
"[ 	c #C7C8C8",
"} 	c #F4F5F5",
"| 	c #F1F1F1",
"1 	c #F3F3F3",
"2 	c #F3F4F4",
"3 	c #F8F8F8",
"4 	c #E5E6E6",
"5 	c #DDDDDD",
"6 	c #BBBCBC",
"7 	c #D4D4D4",
"8 	c #FAFAFA",
"9 	c #CECECE",
"0 	c #E0E0E0",
"a 	c #D5D6D6",
"b 	c #F5F5F5",
"c 	c #F5F6F6",
"d 	c #F0F0F0",
"e 	c #EAEAEA",
"f 	c #EDEDED",
"g 	c #D7D7D7",
"h 	c #E4E4E4",
"i 	c #F8F7F7",
"j 	c #F7F7F7",
"k 	c #FBFBFB",
"l 	c #E7E8E8",
"m 	c #DCDCDC",
"n 	c #D8D8D8",
"o 	c #DFDFDF",
"p 	c #D1D1D1",
"q 	c #C3C3C3",
"r 	c #F9F9F9",
"s 	c #FDFDFD",
"t 	c #ECECEC",
"u 	c #E1E0E0",
"v 	c #D3D3D3",
"w 	c #D0D0D0",
"x 	c #CFCFCF",
"y 	c #D9D9D9",
"z 	c #E9E9E9",
"A 	c #FEFEFE",
"B 	c #EBECEC",
"C 	c #D2D2D2",
"D 	c #BBBBBB",
"E 	c #EEEFEF",
"F 	c #C0C0C0",
"G 	c #CACACA",
"H 	c #FCFCFC",
"I 	c #E9EAEA",
"J 	c #CBCBCB",
"K 	c #BDBDBD",
"L 	c #BFBFBF",
"M 	c #C6C6C6",
"N 	c #FFFFFF",
"O 	c #E6E6E6",
"P 	c #C7C7C7",
"Q 	c #CCCCCC",
"R 	c #B4B4B4",
"S 	c #EBEBEB",
"T 	c #E5E5E5",
"U 	c #CDCDCD",
"V 	c #C9C9C9",
"W 	c #C2C2C2",
"X 	c #BABABA",
"Y 	c #E1E1E1",
"Z 	c #DEDEDE",
"` 	c #BEBEBE",
" .	c #B6B6B6",
"..	c #C8C8C8",
"+.	c #C1C1C1",
"@.	c #D6D6D6",
"#.	c #E7E7E7",
"$.	c #B2B2B2",
"%.	c #B5B5B5",
"&.	c #D5D5D5",
"*.	c #AAAAAA",
"=.	c #E8E8E9",
"                                            ",
"      . + @ # $ % & % % * = = - - - ;       ",
"      > , ' - ) ! ' ~ { ] ] ^ ^ / / (       ",
"      _ & ] : < / [ } * | 1 2 < < < 3       ",
"      4 5 6 7 8 8 9 6 0 a } b c ( ( 8       ",
"      d { 1 e 0 0 f d ~ g h 3 i j j k       ",
"      e l m n o 5 p 0 * q 3 r r 8 8 s       ",
"      t u v 5 w x y 9 5 q z ( 8 8 8 A       ",
"      B ) C D E _ F w v x G ) k k H A       ",
"      I ) J K k 8 L G C M D w s 8 s N       ",
"      O y q F x J P q Q R M S T m S N       ",
"      T U V W V U 9 7 D X Y w w k Z b       ",
"      ; p G p C 7 g v P ` L e g ) 0 8       ",
"      e 7 J U x w 9 Q V  .X C n ..o d       ",
"      ^ o T +.@.@.G #.g  .P 9 X f G f       ",
"      8 3 H y U 9 T N N S $...F X U L       ",
"      8 r 8 k b ( A A s 8 X %.y y q         ",
"      k r 8 k H s s A 8 b &.*.j V           ",
"      k r k k H s A A 8 | =.n ..            ",
"      k r 8 k H s A A r | O `               ",
"      4 % h h h T O O $ Z C                 ",
"                                            "};
