/* XPM */
static const char *Inno_xpm[] = {
/* columns rows colors chars-per-pixel */
"16 16 157 2 ",
"   c #012642",
".  c #022A46",
"X  c #0E2F47",
"o  c #002C4A",
"O  c #0A3751",
"+  c #264055",
"@  c #004273",
"#  c #194E7A",
"$  c #204D65",
"%  c #2B5065",
"&  c #455A6C",
"*  c #526574",
"=  c #5B6C7B",
"-  c #0E5795",
";  c #0065A6",
":  c #006FAE",
">  c #166FA2",
",  c #0078BA",
"<  c #2972B6",
"1  c #476D81",
"2  c #607589",
"3  c #0075C5",
"4  c #0878D2",
"5  c #3E88AE",
"6  c #2786B5",
"7  c #2187BB",
"8  c #638291",
"9  c #688494",
"0  c #6A8897",
"q  c #4485A8",
"w  c #5B9CBC",
"e  c #6996AF",
"r  c #7B93A0",
"t  c #0280C1",
"y  c #0183C6",
"u  c #0083C8",
"i  c #1F8DC8",
"p  c #028CD7",
"a  c #028FD8",
"s  c #1C85D3",
"d  c #0392DC",
"f  c #0594DE",
"g  c #0F97DC",
"h  c #399BCC",
"j  c #208BDE",
"k  c #2D9DD6",
"l  c #119DE5",
"z  c #159FE6",
"x  c #1C9CE5",
"c  c #2597E4",
"v  c #2CAAEB",
"b  c #2DABEB",
"n  c #3AAAE2",
"m  c #34ACEA",
"M  c #68A8C9",
"N  c #74AFCC",
"B  c #7AAFC8",
"V  c #76B4D7",
"C  c #499FE2",
"Z  c #5FA9E3",
"A  c #49B6ED",
"S  c #4CB7EE",
"D  c #58B0EA",
"F  c #54BAEE",
"G  c #57BAEE",
"H  c #58BCEF",
"J  c #65A5E1",
"K  c #68BEE7",
"L  c #62B9ED",
"P  c #6DBEEF",
"I  c #75B8E8",
"U  c #73BDEC",
"Y  c #6EC0EE",
"T  c #75C1EF",
"R  c #63C1F0",
"E  c #6CC4F1",
"W  c #8997A0",
"Q  c #909AA3",
"!  c #919EA6",
"~  c #88A1AE",
"^  c #9AA3AB",
"/  c #9AACB5",
"(  c #9EAFB7",
")  c #93A7BC",
"_  c #A1AFB6",
"`  c #A3B0B7",
"'  c #A8B6BD",
"]  c #AAB6BC",
"[  c #93B5C7",
"{  c #9EBBC8",
"}  c #95BFD3",
"|  c #9ABAD4",
" . c #ADBAC0",
".. c #ABBEC6",
"X. c #A0B6CD",
"o. c #B1BCC2",
"O. c #96BAE0",
"+. c #9BBCE1",
"@. c #9FC5D7",
"#. c #B6C0C4",
"$. c #B0C6CF",
"%. c #BBCBD3",
"&. c #8AC4EB",
"*. c #9FCBEC",
"=. c #8FD0EF",
"-. c #87CFF3",
";. c #89CFF1",
":. c #8DD2F4",
">. c #91D3F4",
",. c #A0CFED",
"<. c #B8D2ED",
"1. c #BBDBE9",
"2. c #A3D9F6",
"3. c #A6DCF6",
"4. c #ADDDF7",
"5. c #B6E1F7",
"6. c #B4E1F8",
"7. c #C4CBD3",
"8. c #C3CCD1",
"9. c #CAD7DD",
"0. c #CBD8DE",
"q. c #D9DBDE",
"w. c #CFDCE1",
"e. c #CCE0EA",
"r. c #D7E1E5",
"t. c #D9E2E5",
"y. c #C3E6F7",
"u. c #C3E7F9",
"i. c #C4E8F9",
"p. c #D5E8F5",
"a. c #D8E8F0",
"s. c #D9EAF1",
"d. c #D4EEFB",
"f. c #DBF1FC",
"g. c #E1E4E6",
"h. c #E2E6E8",
"j. c #E2EBEE",
"k. c #E4EBEF",
"l. c #E3EDF1",
"z. c #E6EFF8",
"x. c #ECF3F5",
"c. c #EFF6FA",
"v. c #E9F6FD",
"b. c #EDF8FD",
"n. c #F1F3F4",
"m. c #F4F4F5",
"M. c #F5F5F5",
"N. c #F2F7FB",
"B. c #F7F8F8",
"V. c #F5F8FA",
"C. c #F8F8F8",
"Z. c #F9FAFA",
"A. c #F8FBFD",
"S. c #FBFCFD",
"D. c #FCFCFD",
"F. c #FEFDFD",
"G. c #FFFFFF",
/* pixels */
"G.G.G.G.G.G.G.Z.V.S.G.G.G.G.G.G.",
"G.G.G.G.G.p.*.I Z J O.h.G.G.G.G.",
"G.G.G.c.,.U T P S c 4 < X.M.G.G.",
"G.G.N.&.T 4.u.6.;.G x 3 - ) G.G.",
"G.G.*.D 2.f.b.d.3.E v p ; # 7.G.",
"G.z.C L 5.v.b.d.3.E v p : @ 2 M.",
"G.<.j Y y.i.i.6.:.H x k M e 9 ] ",
"G.+.s =.;.-.>.-.R m n y.G.G.r._ ",
"F.} V Y m S F S b g h B l.G.t.` ",
"n.{ 1.i f l z l d y 6 @.l.x.t.` ",
"8.%.e.> , y y 3 7 N a.l.8 $...#.",
"] r.A.[ q 5 w } a.S.0.1 O 0 o.Z.",
"] 9.G.G.V.V.G.G.j.~ $ o X ! Z.G.",
"h./ 0.x.x.k.%.r % .   + ^ M.G.G.",
"G.g. .` ( ` W * & = Q q.G.G.G.G.",
"G.G.G.Z.M.G.G.V.M.Z.G.G.G.G.G.G."
};
