/* XPM */
static const char * Inno_xpm[] = {
"16 16 159 2",
"  	c None",
". 	c #67B2E4",
"+ 	c #49A2E2",
"@ 	c #3995DD",
"# 	c #3188D8",
"$ 	c #65B1E5",
"% 	c #6FBCEC",
"& 	c #76C2EF",
"* 	c #6EBFF0",
"= 	c #52B1EC",
"- 	c #2798E4",
"; 	c #0D7BD4",
"> 	c #1666AF",
", 	c #466E9B",
"' 	c #4EA7E4",
") 	c #79C3F0",
"! 	c #B0DFF7",
"~ 	c #C5E8FA",
"{ 	c #B5E2F8",
"] 	c #8ED2F4",
"^ 	c #58BBEF",
"/ 	c #1A9DE7",
"( 	c #0078C8",
"_ 	c #085595",
": 	c #3F6084",
"< 	c #4EA0DF",
"[ 	c #59B2EB",
"} 	c #A7DBF6",
"| 	c #DDF2FC",
"1 	c #F0F9FE",
"2 	c #D7EFFC",
"3 	c #A7DCF7",
"4 	c #6EC5F1",
"5 	c #2BAAEC",
"6 	c #028ED9",
"7 	c #0067A8",
"8 	c #154C79",
"9 	c #3195E0",
"0 	c #64BCEE",
"a 	c #B7E2F8",
"b 	c #ECF8FD",
"c 	c #F0FAFE",
"d 	c #D6EFFB",
"e 	c #6DC5F1",
"f 	c #2BABEC",
"g 	c #008ED9",
"h 	c #006CAC",
"i 	c #003E6F",
"j 	c #334F68",
"k 	c #258EDF",
"l 	c #6EC0ED",
"m 	c #CCEBF9",
"n 	c #C5E7F9",
"o 	c #C6E9FB",
"p 	c #5ABDEF",
"q 	c #129FE7",
"r 	c #309ED4",
"s 	c #79B4D1",
"t 	c #78A2B9",
"u 	c #6F8C9C",
"v 	c #518ED0",
"w 	c #107FD0",
"x 	c #A9DCF4",
"y 	c #82CBEF",
"z 	c #88D0F4",
"A 	c #92D4F5",
"B 	c #85CFF4",
"C 	c #65C0F0",
"D 	c #31ABEA",
"E 	c #35A8E1",
"F 	c #DEF3FC",
"G 	c #FDFEFE",
"H 	c #FEFFFF",
"I 	c #CAD8DE",
"J 	c #809199",
"K 	c #548DB8",
"L 	c #88BBD9",
"M 	c #56B3E1",
"N 	c #33ADEC",
"O 	c #4DB8EE",
"P 	c #55BBEF",
"Q 	c #4AB6EE",
"R 	c #2FABEB",
"S 	c #0F96DB",
"T 	c #4CA3CD",
"U 	c #72A8C3",
"V 	c #E4F0F4",
"W 	c #FFFFFF",
"X 	c #D0DBE0",
"Y 	c #81929A",
"Z 	c #8AABBA",
"` 	c #C0DCE8",
" .	c #0B84C5",
"..	c #0597E1",
"+.	c #119DE5",
"@.	c #169FE7",
"#.	c #0F9DE5",
"$.	c #0093DE",
"%.	c #0081C6",
"&.	c #1E83B6",
"*.	c #98C0D3",
"=.	c #F6FCFE",
"-.	c #E8EDF0",
";.	c #D1DDE2",
">.	c #A7BAC3",
",.	c #CDE0E8",
"'.	c #02629A",
").	c #007BBF",
"!.	c #0084CB",
"~.	c #0083CB",
"{.	c #0074B8",
"].	c #1880B4",
"^.	c #7EB5D1",
"/.	c #E0EDF4",
"(.	c #F7FFFF",
"_.	c #5B7B8C",
":.	c #A6BEC8",
"<.	c #9EB2BB",
"[.	c #83959E",
"}.	c #CFDCE1",
"|.	c #9ABAC9",
"1.	c #367799",
"2.	c #2D789E",
"3.	c #5996B3",
"4.	c #ABCEDE",
"5.	c #EAF5F9",
"6.	c #D9E5EA",
"7.	c #2F596D",
"8.	c #073A57",
"9.	c #62818F",
"0.	c #798C96",
"a.	c #BECED6",
"b.	c #ECF2F5",
"c.	c #98B0BC",
"d.	c #0E3D57",
"e.	c #00304F",
"f.	c #092C44",
"g.	c #4C616C",
"h.	c #8399A4",
"i.	c #CDD9DF",
"j.	c #E7EEF1",
"k.	c #EAF1F3",
"l.	c #DAE3E6",
"m.	c #BCC9D0",
"n.	c #889FAB",
"o.	c #2C5167",
"p.	c #001F3C",
"q.	c #032B47",
"r.	c #1E394F",
"s.	c #525F6C",
"t.	c #8398A2",
"u.	c #8B9FA8",
"v.	c #889DA6",
"w.	c #92A4AD",
"x.	c #637784",
"y.	c #344B5C",
"z.	c #374E60",
"A.	c #425768",
"B.	c #4F5F6E",
"                                ",
"            . + @ #             ",
"        $ % & * = - ; > ,       ",
"      ' ) ! ~ { ] ^ / ( _ :     ",
"    < [ } | 1 2 3 4 5 6 7 8     ",
"    9 0 a b c d 3 e f g h i j   ",
"    k l m n o { ] p q r s t u   ",
"  v w x y z A B C D E F G H I J ",
"  K L M N O P Q R S T U V W X Y ",
"  Z `  ...+.@.#.$.%.&.*.=.-.;.J ",
"  >.,.'.).!.~.{.].^./.(._.:.<.  ",
"[.}.W |.1.2.3.4.5.W 6.7.8.9.0.  ",
"  a.W W W W W W b.c.d.e.f.g.    ",
"  h.i.j.k.l.m.n.o.p.q.r.s.      ",
"    t.u.v.w.x.y.z.A.B.          ",
"                                "};
