/* XPM */
static const char * install_xpm[] = {
"22 22 106 2",
"  	c None",
". 	c #2E2E2E",
"+ 	c #303030",
"@ 	c #1E1F1E",
"# 	c #2F342E",
"$ 	c #2A5121",
"% 	c #272D26",
"& 	c #28561F",
"* 	c #3F982E",
"= 	c #40A72E",
"- 	c #41A82D",
"; 	c #48AF30",
"> 	c #2A3129",
", 	c #205118",
"' 	c #389528",
") 	c #41A92D",
"! 	c #47AD2F",
"~ 	c #4EB332",
"{ 	c #55B836",
"] 	c #5DBE39",
"^ 	c #66C63D",
"/ 	c #6ECC41",
"( 	c #77D445",
"_ 	c #80DB4A",
": 	c #89E24E",
"< 	c #8FE750",
"[ 	c #90E750",
"} 	c #313930",
"| 	c #1F5116",
"1 	c #3C9928",
"2 	c #49AF30",
"3 	c #4EB433",
"4 	c #55B935",
"5 	c #5CBE39",
"6 	c #64C43C",
"7 	c #6CCB40",
"8 	c #73D144",
"9 	c #7BD848",
"0 	c #85DF4C",
"a 	c #8EE650",
"b 	c #363C34",
"c 	c #255519",
"d 	c #44A02C",
"e 	c #51B634",
"f 	c #57BA36",
"g 	c #5CBF39",
"h 	c #63C43C",
"i 	c #6BC93F",
"j 	c #72D042",
"k 	c #7AD647",
"l 	c #85E14C",
"m 	c #87DE4C",
"n 	c #80D148",
"o 	c #30372E",
"p 	c #2A5A1C",
"q 	c #4CA630",
"r 	c #5ABD38",
"s 	c #5FC03A",
"t 	c #65C53D",
"u 	c #6BCA40",
"v 	c #71CF42",
"w 	c #7BD847",
"x 	c #80DA49",
"y 	c #5EA138",
"z 	c #3D8229",
"A 	c #45A52D",
"B 	c #5EC139",
"C 	c #75D244",
"D 	c #272D25",
"E 	c #2F5E1E",
"F 	c #54AD33",
"G 	c #62C33B",
"H 	c #67C73E",
"I 	c #6DCB40",
"J 	c #74D344",
"K 	c #7BD746",
"L 	c #62A83B",
"M 	c #4D8D37",
"N 	c #479E34",
"O 	c #40A52C",
"P 	c #50B433",
"Q 	c #232920",
"R 	c #32601F",
"S 	c #5CB337",
"T 	c #6BCB40",
"U 	c #70CF43",
"V 	c #75D044",
"W 	c #57A134",
"X 	c #3D832A",
"Y 	c #449D32",
"Z 	c #45A832",
"` 	c #262C23",
" .	c #35611F",
"..	c #65BA3B",
"+.	c #6DC63F",
"@.	c #60AD38",
"#.	c #272B26",
"$.	c #274517",
"%.	c #242324",
"&.	c #1B1B1B",
"*.	c #151515",
"=.	c #121212",
"-.	c #131313",
";.	c #141414",
">.	c #030303",
",.	c #000000",
"      .                                     ",
"      +                                     ",
"      @                                     ",
"      # $                                   ",
"      % & * = - ;                           ",
"      > , ' ) ! ~ { ] ^ / ( _ : < [         ",
"      } | 1 2 3 4 5 6 7 8 9 0 a [           ",
"      b c d e f g h i j k l m n             ",
"      o p q r s t u v w x y z A B C         ",
"      D E F G H I J K L M N O P h           ",
"      Q R S T U V W X Y Z                   ",
"      `  ...+.@.                            ",
"      #.$.                                  ",
"      %.                                    ",
"      &.                                    ",
"      *.                                    ",
"      =.                                    ",
"      -.                                    ",
"      ;.                                    ",
"      >.                                    ",
"      ,.                                    ",
"                                            "};
