/* XPM */
static const char * install_del_xpm[] = {
"22 22 97 2",
"  	c None",
". 	c #505050",
"+ 	c #3F3F3F",
"@ 	c #21211F",
"# 	c #3A3831",
"$ 	c #423505",
"% 	c #2E2C24",
"& 	c #4C3D03",
"* 	c #8B6F00",
"= 	c #AE8C00",
"- 	c #D8AE05",
"; 	c #F2C50F",
"> 	c #333129",
", 	c #493B01",
"' 	c #B08E02",
") 	c #DBB20D",
"! 	c #F3C81B",
"~ 	c #F5CD27",
"{ 	c #F6CF31",
"] 	c #F7D23D",
"^ 	c #F7D44B",
"/ 	c #F8D857",
"( 	c #F8DB64",
"_ 	c #F9DF73",
": 	c #F9E07A",
"< 	c #F8D95D",
"[ 	c #3D3B33",
"} 	c #493A01",
"| 	c #8A6F00",
"1 	c #B18F04",
"2 	c #DBB412",
"3 	c #F3CA22",
"4 	c #F6CF32",
"5 	c #F6D341",
"6 	c #F8D752",
"7 	c #F8DA61",
"8 	c #F9DE70",
"9 	c #FAE283",
"0 	c #FAE280",
"a 	c #F8DC6A",
"b 	c #413F38",
"c 	c #4A3C02",
"d 	c #DCB412",
"e 	c #F4CB22",
"f 	c #F6D032",
"g 	c #F6D342",
"h 	c #F7D651",
"i 	c #F9DB63",
"j 	c #FBE06F",
"k 	c #F1D254",
"l 	c #39372F",
"m 	c #B18E03",
"n 	c #DBB310",
"o 	c #F3CA20",
"p 	c #F6CF30",
"q 	c #F7D23F",
"r 	c #F9D851",
"s 	c #F7D54B",
"t 	c #D2B644",
"u 	c #CBB55D",
"v 	c #ECD267",
"w 	c #FADE6C",
"x 	c #F7D54D",
"y 	c #2C2A23",
"z 	c #B08E01",
"A 	c #DAB20B",
"B 	c #F8CF2B",
"C 	c #F9D230",
"D 	c #DBB92C",
"E 	c #CDB248",
"F 	c #E9CE61",
"G 	c #F4D75F",
"H 	c #F6D44E",
"I 	c #F6CF37",
"J 	c #27261E",
"K 	c #4B3C02",
"L 	c #B08C00",
"M 	c #DDB205",
"N 	c #D5AF14",
"O 	c #C7A623",
"P 	c #E6C331",
"Q 	c #F6CF2C",
"R 	c #2B2921",
"S 	c #493A00",
"T 	c #8C6F00",
"U 	c #AF8C00",
"V 	c #AD8B00",
"W 	c #8D7302",
"X 	c #2C2B27",
"Y 	c #2D2501",
"Z 	c #252526",
"` 	c #1C1C1C",
" .	c #141414",
"..	c #111111",
"+.	c #121212",
"@.	c #030303",
"#.	c #000000",
"      .                                     ",
"      +                                     ",
"      @                                     ",
"      # $                                   ",
"      % & * = - ;                           ",
"      > , * ' ) ! ~ { ] ^ / ( _ : <         ",
"      [ } | 1 2 3 4 5 6 7 8 9 0 a           ",
"      b c | 1 d e f g h i j k               ",
"      l & | m n o p q r s t u v w x         ",
"      y & | z A ! B C D E F G H I           ",
"      J K * L M ; N O P Q                   ",
"      R S T U V W                           ",
"      X Y                                   ",
"      Z                                     ",
"      `                                     ",
"       .                                    ",
"      ..                                    ",
"      +.                                    ",
"      ..                                    ",
"      @.                                    ",
"      #.                                    ",
"                                            "};
