/* XPM */
static const char * language_xpm[] = {
"22 22 321 2",
"  	c None",
". 	c #8D91C0",
"+ 	c #9298C4",
"@ 	c #7984BA",
"# 	c #6A78B3",
"$ 	c #40549F",
"% 	c #22388F",
"& 	c #1C2F89",
"* 	c #1A2985",
"= 	c #6D73AE",
"- 	c #939CC8",
"; 	c #8A9DC9",
"> 	c #7E9AC9",
", 	c #89A6D0",
"' 	c #587FBB",
") 	c #305CA8",
"! 	c #2D55A2",
"~ 	c #284B9C",
"{ 	c #244095",
"] 	c #1F338C",
"^ 	c #1B2B86",
"/ 	c #878CBE",
"( 	c #93A1CB",
"_ 	c #8DAAD2",
": 	c #88B1D8",
"< 	c #7EB2DA",
"[ 	c #5F9ED0",
"} 	c #4D8EC7",
"| 	c #5C90C6",
"1 	c #4B7CBA",
"2 	c #4C74B4",
"3 	c #3D62AA",
"4 	c #294A9B",
"5 	c #1F3990",
"6 	c #1B2F89",
"7 	c #757BB4",
"8 	c #96A7CE",
"9 	c #8BACD4",
"0 	c #89BEE1",
"a 	c #87CDEC",
"b 	c #80C7EA",
"c 	c #77BCE3",
"d 	c #71B1DC",
"e 	c #67A4D3",
"f 	c #6D9ECE",
"g 	c #3C75B7",
"h 	c #4170B3",
"i 	c #4D71B2",
"j 	c #4B68AC",
"k 	c #38519D",
"l 	c #1C308A",
"m 	c #8D9AC7",
"n 	c #83A2CE",
"o 	c #87B7DC",
"p 	c #92CEEC",
"q 	c #8DD7F3",
"r 	c #71C8EC",
"s 	c #54B2E1",
"t 	c #4EA6D9",
"u 	c #619EC8",
"v 	c #B3C5D4",
"w 	c #BCCCDB",
"x 	c #93AECF",
"y 	c #3161AB",
"z 	c #2B54A3",
"A 	c #2C4C9C",
"B 	c #334A99",
"C 	c #6570AE",
"D 	c #899FCB",
"E 	c #81A8D3",
"F 	c #8ABFE1",
"G 	c #73BFE5",
"H 	c #69C2E9",
"I 	c #5ABBE6",
"J 	c #56B3E1",
"K 	c #50A5D5",
"L 	c #D1CFCD",
"M 	c #F5F4F4",
"N 	c #C3C5C6",
"O 	c #59708B",
"P 	c #376BB0",
"Q 	c #325EA9",
"R 	c #2C51A0",
"S 	c #264497",
"T 	c #253B90",
"U 	c #1C2884",
"V 	c #7082B9",
"W 	c #8BA5CF",
"X 	c #77A5D2",
"Y 	c #62A7D6",
"Z 	c #60B1DD",
"` 	c #59B4E1",
" .	c #53AFDF",
"..	c #669AB7",
"+.	c #EEEBE8",
"@.	c #FFFFFF",
"#.	c #36495A",
"$.	c #31506E",
"%.	c #3369AC",
"&.	c #3364AD",
"*.	c #2F57A3",
"=.	c #294A9A",
"-.	c #576AAC",
";.	c #293D91",
">.	c #192B87",
",.	c #4562A8",
"'.	c #7698C9",
").	c #568FC7",
"!.	c #529ACF",
"~.	c #50A2D5",
"{.	c #52A9DA",
"].	c #52AADB",
"^.	c #89A3B1",
"/.	c #D0D0CF",
"(.	c #EAEBE9",
"_.	c #9FAEBA",
":.	c #3E7AB8",
"<.	c #6C8FBA",
"[.	c #436CA8",
"}.	c #2F5AA5",
"|.	c #4C6AAE",
"1.	c #7285BB",
"2.	c #20368E",
"3.	c #273A91",
"4.	c #3F60A7",
"5.	c #3B6BB0",
"6.	c #5E93C9",
"7.	c #448CC7",
"8.	c #4B99CF",
"9.	c #4E9FD3",
"0.	c #4FA1D5",
"a.	c #4F9CCE",
"b.	c #9DA7AC",
"c.	c #C0C1C0",
"d.	c #B8B9B8",
"e.	c #C8C8C6",
"f.	c #B3B5B6",
"g.	c #A5A3A1",
"h.	c #375E97",
"i.	c #305AA6",
"j.	c #5D79B6",
"k.	c #586EAF",
"l.	c #253C91",
"m.	c #384C99",
"n.	c #284C9D",
"o.	c #3162AB",
"p.	c #6594C7",
"q.	c #3F83C1",
"r.	c #478EC9",
"s.	c #4995CD",
"t.	c #4A97CF",
"u.	c #699FC7",
"v.	c #D9DBDB",
"w.	c #6D6F6B",
"x.	c #858786",
"y.	c #A8A8A6",
"z.	c #9C9B98",
"A.	c #3C4754",
"B.	c #38619C",
"C.	c #3457A3",
"D.	c #2B489A",
"E.	c #374D9C",
"F.	c #2A3F93",
"G.	c #284A9B",
"H.	c #305EA8",
"I.	c #507FBD",
"J.	c #4883BF",
"K.	c #4285C2",
"L.	c #438AC6",
"M.	c #6298C4",
"N.	c #B6B4B2",
"O.	c #B5B5B4",
"P.	c #5F6062",
"Q.	c #717375",
"R.	c #484F54",
"S.	c #24303F",
"T.	c #244675",
"U.	c #4872B4",
"V.	c #3860A9",
"W.	c #3053A1",
"X.	c #2F4C9C",
"Y.	c #364C9A",
"Z.	c #273C90",
"`.	c #264699",
" +	c #2F58A5",
".+	c #3567AF",
"++	c #5586C0",
"@+	c #3B7ABC",
"#+	c #719BC4",
"$+	c #8A8B8C",
"%+	c #4D4E4C",
"&+	c #696D71",
"*+	c #253B51",
"=+	c #22456A",
"-+	c #285282",
";+	c #2F5D97",
">+	c #3566AC",
",+	c #4E75B5",
"'+	c #3D63AA",
")+	c #3254A1",
"!+	c #3954A0",
"~+	c #1F378F",
"{+	c #324395",
"]+	c #243F94",
"^+	c #4F7CBA",
"/+	c #6589B4",
"(+	c #95928E",
"_+	c #353634",
":+	c #83868A",
"<+	c #264769",
"[+	c #3A73B2",
"}+	c #3B75B8",
"|+	c #3970B5",
"1+	c #3669B0",
"2+	c #3463AC",
"3+	c #5779B6",
"4+	c #3157A3",
"5+	c #4864AA",
"6+	c #244094",
"7+	c #213890",
"8+	c #304898",
"9+	c #27499B",
"0+	c #2952A2",
"a+	c #7D93B7",
"b+	c #807F7D",
"c+	c #373836",
"d+	c #808081",
"e+	c #2D4A6D",
"f+	c #366BAC",
"g+	c #376CB2",
"h+	c #3161AA",
"i+	c #577BB7",
"j+	c #607FB9",
"k+	c #3F5FA7",
"l+	c #254498",
"m+	c #233E93",
"n+	c #23398F",
"o+	c #3756A2",
"p+	c #7988AB",
"q+	c #7F7F7A",
"r+	c #2D2E2C",
"s+	c #717172",
"t+	c #294164",
"u+	c #3364A8",
"v+	c #3668AF",
"w+	c #3566AF",
"x+	c #3564AD",
"y+	c #3664AC",
"z+	c #7692C5",
"A+	c #5374B3",
"B+	c #385AA4",
"C+	c #28499A",
"D+	c #223E94",
"E+	c #8A93B0",
"F+	c #797975",
"G+	c #242624",
"H+	c #7C7B7A",
"I+	c #5C6880",
"J+	c #5576AE",
"K+	c #446DB2",
"L+	c #4870B3",
"M+	c #456EB1",
"N+	c #6284BC",
"O+	c #6784BD",
"P+	c #345AA5",
"Q+	c #294D9D",
"R+	c #3656A2",
"S+	c #284F9F",
"T+	c #264A9C",
"U+	c #C1C1C1",
"V+	c #696A68",
"W+	c #292A28",
"X+	c #706F6D",
"Y+	c #3C4D68",
"Z+	c #274C94",
"`+	c #395EA7",
" @	c #5274B3",
".@	c #3158A4",
"+@	c #6B87BD",
"@@	c #3C60A8",
"#@	c #2A509F",
"$@	c #315AA5",
"%@	c #3362AC",
"&@	c #2A54A2",
"*@	c #AFAFAF",
"=@	c #999999",
"-@	c #333432",
";@	c #5D5D5D",
">@	c #6F788A",
",@	c #3A66A4",
"'@	c #477DBD",
")@	c #4A7CBB",
"!@	c #5E89C2",
"~@	c #6E95C8",
"{@	c #396AB0",
"]@	c #3065AE",
"^@	c #2F67B0",
"/@	c #326CB4",
"(@	c #386EB4",
"_@	c #315EAA",
":@	c #777777",
"<@	c #A4A4A4",
"[@	c #868686",
"}@	c #29468E",
"|@	c #2F59A6",
"1@	c #336DB6",
"2@	c #3374BA",
"3@	c #3678BC",
"4@	c #3B7BBE",
"5@	c #4E87C4",
"6@	c #4C81C0",
"7@	c #436FB4",
"8@	c #4365A4",
"9@	c #A7A7A7",
"0@	c #8C8C8C",
"a@	c #12224D",
"b@	c #1C376E",
"c@	c #1F427F",
"d@	c #20437F",
"e@	c #1A3A72",
"f@	c #112652",
"                                            ",
"              . + @ # $ % & *               ",
"          = - ; > , ' ) ! ~ { ] ^           ",
"        / ( _ : < [ } | 1 2 3 4 5 6         ",
"      7 8 9 0 a b c d e f g h i j k l       ",
"      m n o p q r s t u v w x y z A B       ",
"    C D E F G H I J K L M N O P Q R S T     ",
"  U V W X Y Z ` J  ...+.@.#.$.%.&.*.=.-.;.  ",
"  >.,.'.).!.~.{.].t ^./.(._.:.<.[.}.|.1.2.  ",
"  3.4.5.6.7.8.9.0.a.b.c.d.e.f.g.h.i.j.k.l.  ",
"  m.n.o.p.q.r.s.t.u.v.w.x.y.z.A.B.i.C.D.E.  ",
"  F.G.H.I.J.K.L.M.N.O.P.Q.R.S.T.U.V.W.X.Y.  ",
"  Z.`. +.+++@+#+$+%+&+*+=+-+;+>+,+'+)+!+~+  ",
"  {+]+R Q ^+/+(+_+:+<+[+}+|+1+2+3+4+5+6+7+  ",
"    8+9+0+a+b+c+d+e+f+|+g+.+h+i+j+k+l+m+    ",
"    n+o+p+q+r+s+t+u+v+w+x+y+z+A+B+C+`.D+    ",
"      E+F+G+H+I+J+K+L+M+N+O+P+Q+R+S+T+      ",
"    U+V+W+X+Y+Z+`+ @.@+@@@R #@$@%@&@        ",
"  *@=@-@;@>@,@'@)@!@~@{@]@^@/@(@_@          ",
"  :@  <@[@  }@|@1@2@3@4@5@6@7@8@            ",
"  9@  0@        a@b@c@d@e@f@                ",
"                                            "};
