/* XPM */
static const char *LinksOben_xpm[] = {
/* columns rows colors chars-per-pixel */
"46 49 2 1",
"  c #FFFFFF",
". c #C6C6C6",
/* pixels */
"                                              ",
"                          .....               ",
"                      ..........              ",
"                 ............. ..             ",
"             ..........     .. ..             ",
"        ..........          .......           ",
"      ........           ...........          ",
"      ...           ........... .....         ",
"      ..        ..........      .. ...        ",
"      ..   ..........           ..  ..        ",
"      ..  .......               ..   ..       ",
"      ..  ...                   ..  ...       ",
"      ..  ..                    .......       ",
"      ..  ..                    .......       ",
"      ..  ..                     ..  ..       ",
"      ..  ..                         ..       ",
"      ..  ..                         ..       ",
"      ..  ..                         ..       ",
"      ..  ..             ..          ..       ",
"      ..  ..             ..   .      ..       ",
"      ..  ..         .   ..  ..      ..       ",
"      ..  ..        ...  .. ...      ..       ",
"      ..  ..        .... .....       ..       ",
"      ..  ..         ........        ..       ",
"      ..  ..          ..........     ..       ",
"      ..  ..           ..........    ..       ",
"      ..  ..       ............      ..       ",
"      ..  ..      ...........        ..       ",
"      ..  ..       .   .......       ..       ",
"      ..  ..          ........       ..       ",
"      ..  ..         ... .. ...      ..       ",
"      ..  ..        ...  ..  ...     ..       ",
"      ..  ..        ...  ..   .      ..       ",
"      ..  ..             ..          ..       ",
"      ..  ..             .           ..       ",
"      ..  ..                         ..       ",
"      ..  ..                         ..       ",
"      ..  ..                         ..       ",
"      ..  ..                         ..       ",
"      ..  ..                         ..       ",
"      ..  ..                         ..       ",
"      ..  ..                         ..       ",
"      ..  ..                         ..       ",
"      ..  ..                         ..       ",
"      ... ..                    .......       ",
"      ......               ..........         ",
"       .....          ...........             ",
"          ..     ...........                  ",
"          .............                       "
};
