/* XPM */
static const char * msg_xpm[] = {
"22 22 243 2",
"  	c None",
". 	c #558ED2",
"+ 	c #7EA8DC",
"@ 	c #8BB1DF",
"# 	c #8AB1DF",
"$ 	c #6598D5",
"% 	c #4281CD",
"& 	c #5E94D4",
"* 	c #8CB2E0",
"= 	c #C2D6EE",
"- 	c #D9E5F4",
"; 	c #D5E2F2",
"> 	c #D2E1F2",
", 	c #D3E0F2",
"' 	c #D7E3F3",
") 	c #AAC6E8",
"! 	c #6E9ED8",
"~ 	c #508BD0",
"{ 	c #86AEDE",
"] 	c #BFD4EE",
"^ 	c #C8DBF0",
"/ 	c #C0D5ED",
"( 	c #BED3ED",
"_ 	c #BDD2ED",
": 	c #BDD3ED",
"< 	c #C1D6EE",
"[ 	c #C7DAEF",
"} 	c #97B9E3",
"| 	c #5A90D3",
"1 	c #528BD0",
"2 	c #93B7E2",
"3 	c #B4CDEA",
"4 	c #B2CBEA",
"5 	c #B3CCEA",
"6 	c #B3CBEA",
"7 	c #B2CBEB",
"8 	c #B1CBEB",
"9 	c #AFCAEB",
"0 	c #B0CBEB",
"a 	c #BBD1EC",
"b 	c #91B5E2",
"c 	c #4F89D0",
"d 	c #B0CAEA",
"e 	c #A7C4E7",
"f 	c #A6C3E7",
"g 	c #A6C3E6",
"h 	c #A6C2E7",
"i 	c #A6C4E9",
"j 	c #A2C1E7",
"k 	c #9CBADD",
"l 	c #A4B9D3",
"m 	c #B0C0D4",
"n 	c #A7BFDC",
"o 	c #A4C2E7",
"p 	c #AEC8E9",
"q 	c #7FA9DC",
"r 	c #3578C9",
"s 	c #5D93D4",
"t 	c #A1C0E6",
"u 	c #9ABCE4",
"v 	c #99BBE5",
"w 	c #98BBE5",
"x 	c #94B8E4",
"y 	c #8DA8C9",
"z 	c #A9BBD2",
"A 	c #C7D2DE",
"B 	c #E0E5EA",
"C 	c #E2E2E0",
"D 	c #B1C2D7",
"E 	c #94B7E2",
"F 	c #98B9E3",
"G 	c #9DBCE4",
"H 	c #3779CA",
"I 	c #7FA9DD",
"J 	c #8AB0DD",
"K 	c #8DABD0",
"L 	c #97B0CE",
"M 	c #97B0CF",
"N 	c #96B0CE",
"O 	c #93ABC7",
"P 	c #B9C5D3",
"Q 	c #DEE4EB",
"R 	c #ECEEF0",
"S 	c #FBFAF9",
"T 	c #FFFFFF",
"U 	c #FAF8F6",
"V 	c #B3C6DC",
"W 	c #86ADDD",
"X 	c #8BB1E0",
"Y 	c #90B5E1",
"Z 	c #548CD1",
"` 	c #2D73C7",
" .	c #377ACA",
"..	c #87AFDF",
"+.	c #7EA6D9",
"@.	c #98B0CE",
"#.	c #DFE3E7",
"$.	c #F0F3F7",
"%.	c #EEF2F5",
"&.	c #D7DADD",
"*.	c #F7F6F6",
"=.	c #F9F7F4",
"-.	c #ABC1DB",
";.	c #78A4DA",
">.	c #82ABDD",
",.	c #4B87CF",
"'.	c #2D72C7",
").	c #397BCB",
"!.	c #7AA6DC",
"~.	c #76A0D1",
"{.	c #B6C4D6",
"].	c #E3E3E3",
"^.	c #F7F6F5",
"/.	c #BBC1C8",
"(.	c #7B9FCA",
"_.	c #5B92D4",
":.	c #3B7CCB",
"<.	c #2E74C8",
"[.	c #2C72C7",
"}.	c #3377C9",
"|.	c #6E9ED9",
"1.	c #6C98CE",
"2.	c #B4C3D5",
"3.	c #E0E0E0",
"4.	c #FEFEFE",
"5.	c #F8F7F7",
"6.	c #C9C9CB",
"7.	c #5B8AC2",
"8.	c #2E77CD",
"9.	c #2F75CA",
"0.	c #3478CA",
"a.	c #3D79C3",
"b.	c #88A3C4",
"c.	c #F8F7F5",
"d.	c #FEFEFF",
"e.	c #DFDFDF",
"f.	c #FDFDFD",
"g.	c #EFECE9",
"h.	c #7C9DC2",
"i.	c #317ACE",
"j.	c #3279CE",
"k.	c #2E74C9",
"l.	c #2E75CC",
"m.	c #2E73C4",
"n.	c #5E87B6",
"o.	c #A0B0BF",
"p.	c #EEF0F3",
"q.	c #DBDEDF",
"r.	c #8FA6BB",
"s.	c #C5D0D9",
"t.	c #F2F5F9",
"u.	c #F9F9FA",
"v.	c #F1EFEB",
"w.	c #7CA1CC",
"x.	c #2B76CE",
"y.	c #2D74C9",
"z.	c #3178CD",
"A.	c #377FD4",
"B.	c #3785DC",
"C.	c #5184BD",
"D.	c #E1E7EE",
"E.	c #C3C8CC",
"F.	c #569EE5",
"G.	c #448DD7",
"H.	c #5385BA",
"I.	c #9AAFC7",
"J.	c #D8E0EA",
"K.	c #F0F2F5",
"L.	c #ECE8E5",
"M.	c #7699C6",
"N.	c #256EC8",
"O.	c #3075C9",
"P.	c #337DD3",
"Q.	c #437BBB",
"R.	c #A4B3C3",
"S.	c #4286D3",
"T.	c #3A83D6",
"U.	c #3680D6",
"V.	c #2D77CF",
"W.	c #2F69AE",
"X.	c #6C8FB8",
"Y.	c #94A8BF",
"Z.	c #5483BD",
"`.	c #2870C8",
" +	c #2D73C8",
".+	c #3176CB",
"++	c #3479CC",
"@+	c #2B71C7",
"#+	c #2C72C8",
"$+	c #2E74CA",
"%+	c #2A6FC2",
"&+	c #5A86BB",
"*+	c #4076B7",
"=+	c #2F75C8",
"-+	c #2A72C9",
";+	c #246DC5",
">+	c #2168BD",
",+	c #296FC4",
"'+	c #3076CB",
")+	c #347ACF",
"!+	c #377DD1",
"~+	c #3477C9",
"{+	c #2E73C7",
"]+	c #2B72C7",
"^+	c #2770C8",
"/+	c #2971C8",
"(+	c #2B71C6",
"_+	c #2F74C9",
":+	c #3177CD",
"<+	c #347CD2",
"[+	c #3881D7",
"}+	c #3A81D7",
"|+	c #548CD0",
"1+	c #2E73C8",
"2+	c #3076C9",
"3+	c #3278CD",
"4+	c #337ACF",
"5+	c #347CD3",
"6+	c #367FD8",
"7+	c #3984DE",
"8+	c #3B86E0",
"9+	c #3C85DE",
"0+	c #5C91D3",
"a+	c #3D7DCB",
"b+	c #3176CA",
"c+	c #357ACC",
"d+	c #377BCE",
"e+	c #377CCF",
"f+	c #397FD1",
"g+	c #3980D4",
"h+	c #3981D7",
"i+	c #3A83DB",
"j+	c #3A85E0",
"k+	c #3A89E7",
"l+	c #3A89E9",
"m+	c #3A89E6",
"n+	c #5893DC",
"o+	c #468ADB",
"p+	c #3D83D7",
"q+	c #3E83D6",
"r+	c #3D80D2",
"s+	c #3B84DC",
"t+	c #3B88E3",
"                                            ",
"                  . + @ # $ %               ",
"            & * = - ; > , ' > ) !           ",
"        ~ { ] ^ / ( ( _ : _ : < [ } |       ",
"      1 2 : 3 4 5 6 4 4 4 7 8 9 0 a b c     ",
"      { d e e f g g h i j k l m n o p q r   ",
"    s t u v w w w w x y z A B C D E F G %   ",
"  H I b J K L M N O P Q R S T U V W X Y Z ` ",
"   ...+.@.#.$.%.$.&.*.T T T T =.-.;.>.>.,.'.",
"  ).!.~.{.T T T T ].T T T T T ^./.(._.:.<.[.",
"  }.|.1.2.T T T T 3.4.T T T T 5.6.7.8.9.[.[.",
"  '.0.a.b.c.d.T T e.f.T T T T g.h.i.j.k.[.[.",
"  [.[.l.m.n.o.p.q.r.s.t.u.T T v.w.x.k.[.[.` ",
"  [.y.z.A.B.C.D.E.F.G.H.I.J.K.L.M.N.[.[.O.  ",
"    [.k.j.P.Q.A R.S.T.U.V.W.X.Y.Z.`. +.+++  ",
"    [.@+#+$+%+&+*+=+y. +[.-+;+>+,+'+)+!+    ",
"      ~+{+]+[.^+/+(+(+[.[. +_+:+<+[+}+      ",
"      |+` ]+1+O.2+'+'+3+4+5+6+7+8+9+        ",
"    0+a+b+c+d+e+f+g+h+i+j+k+l+m+            ",
"  n+o+p+q+r+      }+s+8+t+                  ",
"                                            ",
"                                            "};
