/* XPM */
static const char * pas_xpm[] = {
"22 22 182 2",
"  	c None",
". 	c #E1E1E2",
"+ 	c #DCDDDD",
"@ 	c #DEDFDF",
"# 	c #DFDFE0",
"$ 	c #DFE0E0",
"% 	c #DFDFDF",
"& 	c #E0E1E1",
"* 	c #E1E2E2",
"= 	c #E3E3E3",
"- 	c #E4E5E5",
"; 	c #E8E8E8",
"> 	c #EBECED",
", 	c #E2E3E4",
"' 	c #E6E7E7",
") 	c #E5E6E6",
"! 	c #E2E3E3",
"~ 	c #E0E0E0",
"{ 	c #E2E2E2",
"] 	c #EAEAEA",
"^ 	c #EEEFEF",
"/ 	c #F1F1F1",
"( 	c #F1F2F2",
"_ 	c #F2F2F2",
": 	c #F6F6F6",
"< 	c #EFF0F0",
"[ 	c #D6D7D7",
"} 	c #D9DADA",
"| 	c #CCCDCD",
"1 	c #D1D2D2",
"2 	c #D1D1D1",
"3 	c #D2D2D2",
"4 	c #D0D0D0",
"5 	c #D0D1D1",
"6 	c #DCDCDC",
"7 	c #EAEBEB",
"8 	c #F0F0F0",
"9 	c #F3F3F3",
"0 	c #F4F4F4",
"a 	c #F8F8F8",
"b 	c #DBDCDC",
"c 	c #E1E1E1",
"d 	c #E9EAEA",
"e 	c #EDEDED",
"f 	c #E9E9E9",
"g 	c #ECECEC",
"h 	c #F5F5F5",
"i 	c #FAFAFA",
"j 	c #CECFCF",
"k 	c #C6C7C7",
"l 	c #D5D6D6",
"m 	c #EFEFEF",
"n 	c #EBEBEB",
"o 	c #E4E4E4",
"p 	c #E5E5E5",
"q 	c #FBFBFB",
"r 	c #F0F1F1",
"s 	c #D7D7D7",
"t 	c #D7D8D8",
"u 	c #EEEEEE",
"v 	c #FDFDFD",
"w 	c #E9EDEA",
"x 	c #DDE1DE",
"y 	c #C7CAC8",
"z 	c #CACDCB",
"A 	c #D4D6D4",
"B 	c #CACACA",
"C 	c #D4D4D4",
"D 	c #C5C5C5",
"E 	c #B6B6B6",
"F 	c #C3C3C3",
"G 	c #D6D6D6",
"H 	c #F9F9F9",
"I 	c #F6FBF7",
"J 	c #6F356A",
"K 	c #6D3767",
"L 	c #6B3865",
"M 	c #8C5B87",
"N 	c #A37A9F",
"O 	c #B8ADB7",
"P 	c #E9EAE9",
"Q 	c #D8D8D8",
"R 	c #F7FCF8",
"S 	c #61235A",
"T 	c #673262",
"U 	c #795175",
"V 	c #956E90",
"W 	c #976592",
"X 	c #9B6A96",
"Y 	c #EAE5E9",
"Z 	c #FEFEFE",
"` 	c #F8FCF8",
" .	c #5D2257",
"..	c #795276",
"+.	c #C0C0C0",
"@.	c #D3D4D3",
"#.	c #C5AFC3",
"$.	c #8B5686",
"%.	c #DDD3DC",
"&.	c #D3D3D3",
"*.	c #DBDBDB",
"=.	c #CFCFCF",
"-.	c #FAFDFA",
";.	c #5B2255",
">.	c #764F72",
",.	c #B6B1B5",
"'.	c #C0BCBF",
").	c #AB8CA7",
"!.	c #885683",
"~.	c #DED6DD",
"{.	c #CDCDCD",
"].	c #FFFFFF",
"^.	c #FCFFFD",
"/.	c #592353",
"(.	c #5A2855",
"_.	c #5B2E56",
":.	c #5C2F58",
"<.	c #794975",
"[.	c #A3819F",
"}.	c #E5E4E5",
"|.	c #EEF1EF",
"1.	c #E7E9E7",
"2.	c #D2D3D2",
"3.	c #CCCECC",
"4.	c #D1D0D1",
"5.	c #E8E9E8",
"6.	c #592454",
"7.	c #6D4369",
"8.	c #9C889A",
"9.	c #9E8E9C",
"0.	c #C4BBC3",
"a.	c #F2F4F2",
"b.	c #D2C6D1",
"c.	c #9E7C9B",
"d.	c #876084",
"e.	c #C4BDC3",
"f.	c #A591A3",
"g.	c #8B6186",
"h.	c #93658E",
"i.	c #EFEDEF",
"j.	c #582453",
"k.	c #7E5B7B",
"l.	c #D6D7D6",
"m.	c #CACBCA",
"n.	c #E1E2E1",
"o.	c #C9BDC7",
"p.	c #B7A2B5",
"q.	c #A2859E",
"r.	c #998397",
"s.	c #B7ACB6",
"t.	c #9A7B98",
"u.	c #A07A9C",
"v.	c #E7E5E7",
"w.	c #5A2454",
"x.	c #815D7E",
"y.	c #DDDDDD",
"z.	c #FAFBFA",
"A.	c #815B7D",
"B.	c #978095",
"C.	c #A590A3",
"D.	c #D3D2D2",
"E.	c #B29BB0",
"F.	c #B9A6B8",
"G.	c #C6C7C6",
"H.	c #A98EA6",
"I.	c #BDABBC",
"J.	c #EAE9EA",
"K.	c #DBCFDA",
"L.	c #C0ADBE",
"M.	c #B8A7B7",
"N.	c #B6A8B5",
"O.	c #BCB8BC",
"P.	c #B49EB1",
"Q.	c #C6B9C4",
"R.	c #F7F7F7",
"S.	c #C5C6C6",
"T.	c #C9C9C9",
"U.	c #E6E6E6",
"V.	c #C8C8C8",
"W.	c #FCFCFC",
"X.	c #BEBEBE",
"Y.	c #DEDEDE",
"                                            ",
"      . + @ # $ % @ @ % & * = - - - ;       ",
"      > , ' ) - ! $ % ~ { ] ^ / ( _ :       ",
"      < [ } | 1 2 3 4 4 5 6 7 8 9 0 a       ",
"      < 7 ' $ b c - d e f c { g 9 h i       ",
"      _ | j k l - f e m n o 6 p 8 : q       ",
"      r ) s 5 t ] / / e u p 3 % g : v       ",
"      ^ w x y z A B 4 C D E F F G { H       ",
"      I J K L M N O P 8 6 Q 4 3 p 9 v       ",
"      R S T U V W X Y / = = 6 4 = 9 Z       ",
"      `  ...+.@.#.$.%.m g &.*.=.{ 9 Z       ",
"      -.;.>.,.'.).!.~.; s B {.4 p 0 ].      ",
"      ^./.(._.:.<.[.}.|.1.2.3.4.5.h ].      ",
"      ].6.7.8.9.0.a.b.c.d.e.f.g.h.i.i       ",
"      ].j.k.l.m.2.n.o.p.q.r.s.t.u.v.h       ",
"      ].w.x.y.s o z.A.4 8.B.C.D.E.F.G.      ",
"      ].H.I.J.p 9 q K.L.M.N.O.P.Q.F         ",
"      q i R.h m H q q R.8 = S.: T.          ",
"      v s 6 h a q v v R.m U.G V.            ",
"      q H q q W.v Z Z H 8 p X.              ",
"      ) ! o o o p U.U.{ Y.3                 ",
"                                            "};
