/* XPM */
static const char * registry_xpm[] = {
"22 22 161 2",
"  	c None",
". 	c #BDBDBD",
"+ 	c #C2C2C2",
"@ 	c #CBCBCB",
"# 	c #D6D6D6",
"$ 	c #D0D0D0",
"% 	c #B6B6B6",
"& 	c #C0C0C0",
"* 	c #C4C4C4",
"= 	c #D9D9D9",
"- 	c #E5E5E5",
"; 	c #E0E0E0",
"> 	c #D3D3D3",
", 	c #C5C5C5",
"' 	c #B7B7B7",
") 	c #CACACA",
"! 	c #E4E4E4",
"~ 	c #E8E8E8",
"{ 	c #E2E2E2",
"] 	c #CCCCCC",
"^ 	c #9B9C9A",
"/ 	c #B2B2B2",
"( 	c #BEBEBE",
"_ 	c #E1E1E1",
": 	c #E6E6E6",
"< 	c #D5D5D5",
"[ 	c #A9ABA9",
"} 	c #CECECE",
"| 	c #D5D6D5",
"1 	c #D8D9D8",
"2 	c #DBDCDB",
"3 	c #DBDBDB",
"4 	c #DFDFDF",
"5 	c #E7E7E7",
"6 	c #EAEAEA",
"7 	c #D2D2D2",
"8 	c #DADADA",
"9 	c #D6D7D6",
"0 	c #DADBDA",
"a 	c #DDDDDD",
"b 	c #DEDEDE",
"c 	c #E9E9E9",
"d 	c #EBECEB",
"e 	c #EEEFEE",
"f 	c #D4D4D4",
"g 	c #B4B4B4",
"h 	c #CDCDCD",
"i 	c #C8C8C8",
"j 	c #CFCFCF",
"k 	c #DCDCDC",
"l 	c #AEAFAE",
"m 	c #C7C8C7",
"n 	c #C9C9C9",
"o 	c #D4D3D4",
"p 	c #D7D7D7",
"q 	c #A6A6A6",
"r 	c #C7C7C7",
"s 	c #D1D1D1",
"t 	c #D8D8D8",
"u 	c #E3E2E3",
"v 	c #EAE5EA",
"w 	c #F0E8F0",
"x 	c #F0EAF0",
"y 	c #ECEBEC",
"z 	c #F1F1F1",
"A 	c #BCBCBC",
"B 	c #C3C3C3",
"C 	c #C7CAC7",
"D 	c #A3CFA3",
"E 	c #5DCE5D",
"F 	c #40C840",
"G 	c #54CE54",
"H 	c #A0D9A0",
"I 	c #CBD1CB",
"J 	c #C1C1C1",
"K 	c #B5B5B5",
"L 	c #00B700",
"M 	c #00BA00",
"N 	c #00BC00",
"O 	c #02BE02",
"P 	c #00BE00",
"Q 	c #00BB00",
"R 	c #BBBBBB",
"S 	c #AEAEAE",
"T 	c #06B004",
"U 	c #05B303",
"V 	c #03B301",
"W 	c #16BA15",
"X 	c #4ECB4E",
"Y 	c #24C024",
"Z 	c #02B901",
"` 	c #0AA808",
" .	c #06A704",
"..	c #01A700",
"+.	c #34B932",
"@.	c #B9E7B9",
"#.	c #54C554",
"$.	c #00AA00",
"%.	c #02AD01",
"&.	c #0F9C0B",
"*.	c #119F0D",
"=.	c #29AA27",
"-.	c #1FA71D",
";.	c #2EAD2C",
">.	c #B3E1B2",
",.	c #4EBC4C",
"'.	c #0BA408",
").	c #34B533",
"!.	c #0EA70B",
"~.	c #0AA707",
"{.	c #13930E",
"].	c #169612",
"^.	c #56B253",
"/.	c #A1D5A1",
"(.	c #50B34E",
"_.	c #A7D8A6",
":.	c #5EBB5C",
"<.	c #86CD85",
"[.	c #7DC97B",
"}.	c #159F12",
"|.	c #0E9E0A",
"1.	c #178A12",
"2.	c #178B12",
"3.	c #2B9426",
"4.	c #9ECC9C",
"5.	c #D6EBD5",
"6.	c #CFE8CE",
"7.	c #D7EDD7",
"8.	c #BBDEBA",
"9.	c #3CA438",
"0.	c #14940F",
"a.	c #12950E",
"b.	c #1C8115",
"c.	c #1A8113",
"d.	c #34902F",
"e.	c #BAD8B8",
"f.	c #FFFFFF",
"g.	c #DBEBDA",
"h.	c #4DA249",
"i.	c #168810",
"j.	c #217919",
"k.	c #207818",
"l.	c #1C7815",
"m.	c #4B9345",
"n.	c #B6D3B3",
"o.	c #68A864",
"p.	c #1B7C14",
"q.	c #1C7E16",
"r.	c #1C8016",
"s.	c #236B1B",
"t.	c #23701B",
"u.	c #25721D",
"v.	c #2D7825",
"w.	c #26761E",
"x.	c #217419",
"y.	c #21751A",
"z.	c #25621C",
"A.	c #27691E",
"B.	c #276A1E",
"C.	c #276A1D",
"D.	c #266B1D",
"                                            ",
"                                            ",
"                                            ",
"                                            ",
"    . + @ # # $                             ",
"  % + & * = - ; >                           ",
"  , '     ) ! ~ { ] ^                       ",
"/ $ (     @ _ ! : < [ } | 1 2 3 4 ! 5 6 {   ",
"' 7 7 ) } 8 ; _ ! 3 & > 9 0 a b _ : c d e f ",
"g h i i ] j 7 f k 3 l m n h $ o p 8 a ; 5 $ ",
"q i r n ] } s f t p t k b ; u v w x y z 3   ",
"  A r @ j s > < f B * r i C D E F G H I     ",
"    J h f t # f K         L M N O P N Q     ",
"      R s # h S         T U V W X Y L Z Z   ",
"                        `  ...+.@.#.$.%.T   ",
"                      &.*.=.-.;.>.,.'.).!.~.",
"                      {.].^./.(._.:.<.[.}.|.",
"                      1.2.3.4.5.6.7.8.9.0.a.",
"                        b.c.d.e.f.g.h.i.1.2.",
"                        j.k.l.m.n.o.p.q.r.  ",
"                          s.t.u.v.w.x.y.    ",
"                            z.A.B.C.D.      "};
