/* XPM */
static const char *run_xpm[] = {
"22 22 135 2",
"  	c None",
". 	c #D1D1D1",
"+ 	c #F7F7F7",
"@ 	c #D0D0D0",
"# 	c #D7D7D7",
"$ 	c #FAFAFA",
"% 	c #D6D6D6",
"& 	c #DFDFDF",
"* 	c #E6E6E6",
"= 	c #CDCDCD",
"- 	c #DEDEDE",
"; 	c #F3F3F3",
"> 	c #F4F4F4",
", 	c #EAEAEA",
"' 	c #DADADA",
") 	c #ECECEC",
"! 	c #EDEDED",
"~ 	c #F0F0F0",
"{ 	c #EFEFEF",
"] 	c #E9E9E9",
"^ 	c #DBDBDB",
"/ 	c #D9D9D9",
"( 	c #E7E7E7",
"_ 	c #EBEBEB",
": 	c #E1E1E1",
"< 	c #D8D8D8",
"[ 	c #D5D5D5",
"} 	c #E2E2E2",
"| 	c #E4E4E4",
"1 	c #DCDCDC",
"2 	c #DDDDDD",
"3 	c #E0E0E0",
"4 	c #B7B7B7",
"5 	c #D4D4D4",
"6 	c #D3D3D3",
"7 	c #CFCFCF",
"8 	c #B0B0B0",
"9 	c #C6C6C6",
"0 	c #D2D2D2",
"a 	c #C5C5C5",
"b 	c #CECECE",
"c 	c #CACACA",
"d 	c #CCCCCC",
"e 	c #C1C1C1",
"f 	c #C9C9C9",
"g 	c #CBCBCB",
"h 	c #C3C3C3",
"i 	c #BCBCBC",
"j 	c #C7C7C7",
"k 	c #C8C8C8",
"l 	c #9F9F9F",
"m 	c #C0C0C0",
"n 	c #C4C4C4",
"o 	c #C2C2C2",
"p 	c #B6B6B6",
"q 	c #BEBEBE",
"r 	c #BABABB",
"s 	c #D6D5D6",
"t 	c #E5E5E5",
"u 	c #EEEEEE",
"v 	c #B9B9B9",
"w 	c #575855",
"x 	c #4D4F4C",
"y 	c #4C4D4B",
"z 	c #424341",
"A 	c #3F403E",
"B 	c #3B3C3B",
"C 	c #373737",
"D 	c #333333",
"E 	c #30302F",
"F 	c #303030",
"G 	c #2D2D2D",
"H 	c #B1B1B1",
"I 	c #BFBFBF",
"J 	c #747673",
"K 	c #6F706D",
"L 	c #BCBDBB",
"M 	c #90908F",
"N 	c #525352",
"O 	c #484947",
"P 	c #3F3F3E",
"Q 	c #323232",
"R 	c #2C2C2C",
"S 	c #BDBDBD",
"T 	c #747572",
"U 	c #5E605D",
"V 	c #525350",
"W 	c #CFD0D0",
"X 	c #828381",
"Y 	c #393A39",
"Z 	c #343433",
"` 	c #2F2F2F",
" .	c #2E2E2E",
"..	c #2B2B2B",
"+.	c #6C6E6B",
"@.	c #60615E",
"#.	c #B3B3B3",
"$.	c #7A7B79",
"%.	c #393938",
"&.	c #2C2D2B",
"*.	c #2D2D2C",
"=.	c #656663",
"-.	c #4A4C49",
";.	c #464845",
">.	c #3E3F3D",
",.	c #A5A5A4",
"'.	c #8B8B8B",
").	c #646563",
"!.	c #494A47",
"~.	c #444442",
"{.	c #3F403D",
"].	c #323231",
"^.	c #272827",
"/.	c #292929",
"(.	c #4A4B49",
"_.	c #2E2F2D",
":.	c #2A2A28",
"<.	c #252625",
"[.	c #212120",
"}.	c #1C1C1C",
"|.	c #1A1A1A",
"1.	c #1B1B1B",
"2.	c #181818",
"3.	c #FBFBFB",
"4.	c #FCFCFC",
"5.	c #E3E3E3",
"6.	c #818181",
"7.	c #8F8F8F",
"8.	c #929292",
"9.	c #969696",
"0.	c #9A9A9A",
"a.	c #999999",
"b.	c #8E8E8E",
"c.	c #8A8A8A",
"d.	c #868686",
"                                            ",
"                  . + + @                   ",
"                  # $ $ %                   ",
"        & *   = - ; > > ; - =   , *         ",
"      ' ) ! ~ { { { { { { { { { ) ] ^       ",
"      / ( _ ) { : ^ / < ' & ) ] ( : [       ",
"        } | _ / 1 & - - 2 / [ * 3 <         ",
"      4 - : [ / & 3 & - - / 5 6 < 7 8       ",
"      9 ' < 0 # 3 9     a ' # b c d e       ",
"  f g [ # 5 0 % h         h 6 a a 7 [ g c   ",
"  9 d @ 5 6 @ 6             f i c 5 @ = j   ",
"  e k d . 6 = .           l m n 0 0 = f o   ",
"  p i k d 6 c 7 q   r @ s - t ! ; u ( 3 [   ",
"      v k . j f b j w x y z A B C D E F G   ",
"      H 9 c 6 a I q J K L M N O P C Q F R   ",
"        m m I f S n T U V W X Y Z `  . ...  ",
"      o h 9 g 7 < < +.@.#.$.%.&.*. . . ...  ",
"      o f d 7 . 6 % =.-.;.>.,.* '. . . ...  ",
"        9 c   o g % ).!.~.{.].^./.` ` ` ..  ",
"                  a (._.:.<.[.}.|.1.1.1.2.  ",
"                  i . | _ ; 3.4.> _ 5.^ 0   ",
"                    6.7.8.9.0.a.9.8.b.c.d.  "};
