/* XPM */
static const char * script_xpm[] = {
"22 22 160 2",
"  	c None",
". 	c #DADADA",
"+ 	c #CFCFCF",
"@ 	c #D2D2D1",
"# 	c #E1E2E1",
"$ 	c #E9EAE9",
"% 	c #EBEBEB",
"& 	c #ECEDED",
"* 	c #E5E6E6",
"= 	c #9F9F9F",
"- 	c #C0C0C0",
"; 	c #ECEDEC",
"> 	c #F4F4F4",
", 	c #B4B4B4",
"' 	c #4C4C4C",
") 	c #A2A2A2",
"! 	c #CDCECE",
"~ 	c #C3C5C5",
"{ 	c #D1D1D0",
"] 	c #F2F2F2",
"^ 	c #ECECEC",
"/ 	c #B3B4B4",
"( 	c #CBCBCA",
"_ 	c #EBECEB",
": 	c #E8E9E8",
"< 	c #B0B0B1",
"[ 	c #E1E2E2",
"} 	c #8F8F8E",
"| 	c #D0D0CF",
"1 	c #D8D9D8",
"2 	c #DFDFDE",
"3 	c #B8B9B7",
"4 	c #B9B9B9",
"5 	c #8D8D8C",
"6 	c #AEAEAF",
"7 	c #EAEAEA",
"8 	c #A9AAA9",
"9 	c #AEB0AF",
"0 	c #747775",
"a 	c #ADAEAD",
"b 	c #C3C4C2",
"c 	c #AEAFAD",
"d 	c #B0B0B0",
"e 	c #626262",
"f 	c #B5B5B6",
"g 	c #DEDFDF",
"h 	c #A1A1A1",
"i 	c #DEDEDE",
"j 	c #797C79",
"k 	c #C2C4C1",
"l 	c #7B7C7B",
"m 	c #9B9B9A",
"n 	c #949493",
"o 	c #757575",
"p 	c #A9A9A9",
"q 	c #DBDBDC",
"r 	c #A3A4A5",
"s 	c #BDBDBD",
"t 	c #CBCBCB",
"u 	c #696A69",
"v 	c #848685",
"w 	c #808180",
"x 	c #5F605F",
"y 	c #424242",
"z 	c #B7B8B8",
"A 	c #DADBDB",
"B 	c #929393",
"C 	c #ABABAB",
"D 	c #3C3E3B",
"E 	c #888889",
"F 	c #737373",
"G 	c #363636",
"H 	c #989898",
"I 	c #D8D9D9",
"J 	c #838484",
"K 	c #858685",
"L 	c #595A5D",
"M 	c #ADADAD",
"N 	c #838383",
"O 	c #969796",
"P 	c #D5D6D7",
"Q 	c #C6AF77",
"R 	c #7C7C7B",
"S 	c #333431",
"T 	c #575756",
"U 	c #848382",
"V 	c #EAD758",
"W 	c #F7D948",
"X 	c #D59504",
"Y 	c #393B38",
"Z 	c #40403F",
"` 	c #8A8C8F",
" .	c #7E5300",
"..	c #EABA00",
"+.	c #FDBD00",
"@.	c #F0C200",
"#.	c #C99900",
"$.	c #C1C1C1",
"%.	c #747473",
"&.	c #2D2E2C",
"*.	c #3B3B3B",
"=.	c #916100",
"-.	c #DAA500",
";.	c #F8DB00",
">.	c #F9DC03",
",.	c #E6BB1C",
"'.	c #CACACA",
").	c #6D6F6D",
"!.	c #393A37",
"~.	c #2D2D2C",
"{.	c #A9A8A9",
"].	c #DBAD00",
"^.	c #FAE113",
"/.	c #F4D949",
"(.	c #E0B501",
"_.	c #BABABA",
":.	c #686967",
"<.	c #2D2E2B",
"[.	c #1E1E1D",
"}.	c #969696",
"|.	c #A06E00",
"1.	c #E6B400",
"2.	c #F2D11A",
"3.	c #FAE236",
"4.	c #E2B601",
"5.	c #B07600",
"6.	c #D5D5D5",
"7.	c #B1B1B1",
"8.	c #323331",
"9.	c #161716",
"0.	c #AFAFAF",
"a.	c #666666",
"b.	c #9E6A00",
"c.	c #E6B500",
"d.	c #EEC504",
"e.	c #FAE12D",
"f.	c #E7C001",
"g.	c #B37500",
"h.	c #C4C4C4",
"i.	c #404040",
"j.	c #A0A0A0",
"k.	c #878787",
"l.	c #777777",
"m.	c #A07300",
"n.	c #E3B000",
"o.	c #EDC508",
"p.	c #F9DC14",
"q.	c #E9BA01",
"r.	c #B2B2B2",
"s.	c #BEBEBE",
"t.	c #868686",
"u.	c #8D5E00",
"v.	c #E5B400",
"w.	c #F2CF02",
"x.	c #EABA04",
"y.	c #8E8E8E",
"z.	c #A8A8A8",
"A.	c #808080",
"B.	c #8F5E00",
"C.	c #C68A00",
"                                            ",
"  . +                         @ # $ %       ",
"  & * =                     - ; > , '       ",
"  ) ! ~                     { ] ^           ",
"      / ^                   ( _ :           ",
"        < [               } | 1 2 3   4 5   ",
"          6 7             8 9 0 a b c d e   ",
"            f g         h i j k l m n o     ",
"              p q r     s t u v w x y       ",
"                z A B C D E F G             ",
"                  H I J K L                 ",
"                M N O P J Q                 ",
"              s R S T U V W X               ",
"            4 K Y Z `  ...+.@.#.            ",
"          $.%.&.*.H     =.-.;.>.,.          ",
"        '.).!.~.{.          ].^./.(.        ",
"      _.:.<.[.}.            |.1.2.3.4.5.    ",
"    6.7.8.9.0.a.              b.c.d.e.f.g.  ",
"  h.  i.j.k.l.                  m.n.o.p.q.  ",
"  r.    s.t.                      u.v.w.x.  ",
"  y.7.z.A.                          B.C.    ",
"                                            "};
