/* XPM */
static const char * steps_xpm[] = {
"22 22 136 2",
"  	c None",
". 	c #212121",
"+ 	c #414141",
"@ 	c #4A4A4A",
"# 	c #515151",
"$ 	c #585858",
"% 	c #5F5F5F",
"& 	c #656565",
"* 	c #6B6B6B",
"= 	c #707070",
"- 	c #757575",
"; 	c #787878",
"> 	c #777777",
", 	c #6C6C6C",
"' 	c #5C5C5C",
") 	c #555555",
"! 	c #4F4F4F",
"~ 	c #484848",
"{ 	c #424242",
"] 	c #363636",
"^ 	c #595959",
"/ 	c #050505",
"( 	c #5E5E5E",
"_ 	c #686868",
": 	c #6E6E6E",
"< 	c #727272",
"[ 	c #7B7B7B",
"} 	c #7E7E7E",
"| 	c #818181",
"1 	c #828282",
"2 	c #838383",
"3 	c #5A5A5A",
"4 	c #454545",
"5 	c #404040",
"6 	c #343434",
"7 	c #434343",
"8 	c #090909",
"9 	c #797979",
"0 	c #848484",
"a 	c #888888",
"b 	c #8C8C8C",
"c 	c #909090",
"d 	c #949494",
"e 	c #999999",
"f 	c #9C9C9C",
"g 	c #9D9D9D",
"h 	c #9E9E9E",
"i 	c #9B9B9B",
"j 	c #626262",
"k 	c #525252",
"l 	c #545454",
"m 	c #5B5B5B",
"n 	c #737373",
"o 	c #7D7D7D",
"p 	c #808080",
"q 	c #8B8B8B",
"r 	c #8D8D8D",
"s 	c #676767",
"t 	c #575757",
"u 	c #8A8A8A",
"v 	c #7C7C7C",
"w 	c #5D5D5D",
"x 	c #535353",
"y 	c #7A7A7A",
"z 	c #979797",
"A 	c #989898",
"B 	c #636363",
"C 	c #6D6D6D",
"D 	c #878787",
"E 	c #898989",
"F 	c #3E3E3E",
"G 	c #4C4C4C",
"H 	c #6F6F6F",
"I 	c #3B3B3B",
"J 	c #444444",
"K 	c #020202",
"L 	c #121212",
"M 	c #383838",
"N 	c #606060",
"O 	c #646464",
"P 	c #373737",
"Q 	c #3D3D3D",
"R 	c #151515",
"S 	c #080808",
"T 	c #262626",
"U 	c #717171",
"V 	c #6A6A6A",
"W 	c #666666",
"X 	c #333333",
"Y 	c #3F3F3F",
"Z 	c #070707",
"` 	c #7F7F7F",
" .	c #2F2F2F",
"..	c #313131",
"+.	c #171717",
"@.	c #969696",
"#.	c #616161",
"$.	c #2B2B2B",
"%.	c #1B1B1B",
"&.	c #A3A3A3",
"*.	c #A7A7A7",
"=.	c #A5A5A5",
"-.	c #A8A8A8",
";.	c #A9A9A9",
">.	c #A4A4A4",
",.	c #A0A0A0",
"'.	c #959595",
").	c #8E8E8E",
"!.	c #272727",
"~.	c #A2A2A2",
"{.	c #AFAFAF",
"].	c #B5B5B5",
"^.	c #BDBDBD",
"/.	c #C6C6C6",
"(.	c #C5C5C5",
"_.	c #C3C3C3",
":.	c #BEBEBE",
"<.	c #B4B4B4",
"[.	c #A1A1A1",
"}.	c #919191",
"|.	c #232323",
"1.	c #AAAAAA",
"2.	c #B2B2B2",
"3.	c #BBBBBB",
"4.	c #B8B8B8",
"5.	c #1E1E1E",
"6.	c #868686",
"7.	c #BABABA",
"8.	c #C4C4C4",
"9.	c #CFCFCF",
"0.	c #C1C1C1",
"a.	c #1A1A1A",
"b.	c #030303",
"c.	c #393939",
"d.	c #4B4B4B",
"e.	c #131313",
"                                            ",
"                                            ",
"                                            ",
". + @ # $ % & * = - ; ; > - , ' ) ! ~ { ] ^ ",
"/ ( _ * : < - > [ } | 1 2 < 3 4 5 5 5 5 6 7 ",
"8 9 0 a b c d e f g h i } j k ) ) k l m l 4 ",
"8 n o p 0 a b b q r 0 s l k l k t : | u v 7 ",
"8 , - 9 v v v v p - w k l l x % y q z A 0 5 ",
"8 B * C , : = n _ $ x l l l % 9 } | D E > F ",
"8 ) x G % ( % m ) l l l l ' H < < < ; [ * I ",
"8 # J K L M t % % % N N N O s s s s s * % P ",
"8 k 3 ^ Q R S T m U n n < = : V W j % m ! X ",
"8 w _ , U = Y Z M ` 0 0 0 1 ` v > n C _ )  .",
"8 _ H # ..+.T m b @.z z @.d c b D | v - #.$.",
"8 n V %.~ ` &.*.=.-.;.;.-.>.,.i '.).D p * !.",
"8 y D ).~.>.-.{.].^./.(._.:.<.-.[.e }.u n |.",
"8 ` c e [.1.2.3.(.;.U = : : ).4.1.[.A c 9 5.",
"8 6.A ,.;.2.7.8.9.].` ` [ ; z 0.2.1.[.A | a.",
"b.c.d.l ( s = 9 p 6.a E 0 } > U _ ( ) G M e.",
"                                            ",
"                                            ",
"                                            "};
