/* XPM */
static const char * tasks_xpm[] = {
"22 22 232 2",
"  	c None",
". 	c #FCDD4B",
"+ 	c #FBDE54",
"@ 	c #FCE05C",
"# 	c #FCE263",
"$ 	c #FDE369",
"% 	c #FDE46D",
"& 	c #FEE670",
"* 	c #FFE870",
"= 	c #E9D364",
"- 	c #F9E065",
"; 	c #FBE15B",
"> 	c #D8BB3A",
", 	c #D0AE27",
"' 	c #E9BF1C",
") 	c #C69F0F",
"! 	c #FCE147",
"~ 	c #FAE04E",
"{ 	c #FBE355",
"] 	c #FCE55C",
"^ 	c #FDE760",
"/ 	c #FDE864",
"( 	c #FBE763",
"_ 	c #E7D55A",
": 	c #D7C651",
"< 	c #B3A440",
"[ 	c #F4DE52",
"} 	c #DECA44",
"| 	c #B69E28",
"1 	c #F5D026",
"2 	c #D6AF16",
"3 	c #FCE241",
"4 	c #FBE348",
"5 	c #FCE54E",
"6 	c #FDE853",
"7 	c #FDE956",
"8 	c #FFF05A",
"9 	c #DFD14E",
"0 	c #FFF259",
"a 	c #DBCD49",
"b 	c #DCCC45",
"c 	c #DFCE42",
"d 	c #FBE745",
"e 	c #E3CE36",
"f 	c #F7D92C",
"g 	c #E9C61B",
"h 	c #FCE33A",
"i 	c #FAE340",
"j 	c #FAE645",
"k 	c #FCE849",
"l 	c #FFED4D",
"m 	c #D2C241",
"n 	c #B3A737",
"o 	c #BBAF39",
"p 	c #B9AD37",
"q 	c #E8D840",
"r 	c #FDEB41",
"s 	c #E6D436",
"t 	c #EFDB32",
"u 	c #FAE32C",
"v 	c #F2D41D",
"w 	c #FCE233",
"x 	c #F6DF37",
"y 	c #EAD638",
"z 	c #EDD93C",
"A 	c #C7B734",
"B 	c #F0DF3F",
"C 	c #FFF245",
"D 	c #FFF143",
"E 	c #FFF041",
"F 	c #D8C932",
"G 	c #CCBC2C",
"H 	c #FEE931",
"I 	c #F9E32A",
"J 	c #F9E224",
"K 	c #F7DF1C",
"L 	c #FDE22B",
"M 	c #D7C128",
"N 	c #FBE433",
"O 	c #B7A627",
"P 	c #FDE838",
"Q 	c #C3B32C",
"R 	c #DBC931",
"S 	c #D9C82F",
"T 	c #E7D52F",
"U 	c #FCE830",
"V 	c #BCAD21",
"W 	c #FCE627",
"X 	c #F8E221",
"Y 	c #F8DF1A",
"Z 	c #F8DD13",
"` 	c #595959",
" .	c #F9DC22",
"..	c #E2C922",
"+.	c #EAD127",
"@.	c #B3A120",
"#.	c #E7D129",
"$.	c #E0CB28",
"%.	c #EAD629",
"&.	c #FBE52B",
"*.	c #FCE629",
"=.	c #E7D223",
"-.	c #C3B119",
";.	c #FBE31C",
">.	c #F8DF17",
",.	c #F8DD0F",
"'.	c #EED30F",
").	c #8C8FA3",
"!.	c #A9A9A9",
"~.	c #252525",
"{.	c #ECCE17",
"].	c #9E8C12",
"^.	c #D1B919",
"/.	c #E3CA1E",
"(.	c #BBA81A",
"_.	c #FAE022",
":.	c #FDE422",
"<.	c #EDD61E",
"[.	c #C0AD16",
"}.	c #E2CB18",
"|.	c #F8DE16",
"1.	c #F7DC11",
"2.	c #F7DA0C",
"3.	c #E4CA12",
"4.	c #AEA98B",
"5.	c #9D9E9F",
"6.	c #505050",
"7.	c #F8D60F",
"8.	c #EFD011",
"9.	c #B9A10F",
"0.	c #F5D715",
"a.	c #F0D317",
"b.	c #BDA710",
"c.	c #C1AA11",
"d.	c #DAC112",
"e.	c #F0D412",
"f.	c #F7D90F",
"g.	c #F6D80B",
"h.	c #F5D705",
"i.	c #E6CB0D",
"j.	c #B7B28F",
"k.	c #A3A3A5",
"l.	c #626262",
"m.	c #F4CF04",
"n.	c #F3D007",
"o.	c #F4D20A",
"p.	c #D8BA0A",
"q.	c #FCD90C",
"r.	c #FEDB0C",
"s.	c #FBD90A",
"t.	c #F5D509",
"u.	c #F7D607",
"v.	c #ECCC03",
"w.	c #F4D200",
"x.	c #DFC20C",
"y.	c #B8B498",
"z.	c #9E9FA8",
"A.	c #736C49",
"B.	c #F3CA00",
"C.	c #ECC600",
"D.	c #C6A701",
"E.	c #B19601",
"F.	c #AD9300",
"G.	c #978000",
"H.	c #B99D01",
"I.	c #BA9E00",
"J.	c #D3B400",
"K.	c #EAC700",
"L.	c #E5C40B",
"M.	c #B7B293",
"N.	c #A3A3A4",
"O.	c #756E4D",
"P.	c #CBA900",
"Q.	c #F2C500",
"R.	c #EFC400",
"S.	c #EDC300",
"T.	c #F7CC00",
"U.	c #E2BB00",
"V.	c #D0AE00",
"W.	c #F9D000",
"X.	c #F7CF00",
"Y.	c #F5CC00",
"Z.	c #DEBA0B",
"`.	c #B6B193",
" +	c #9D9FA8",
".+	c #736C4B",
"++	c #C3A002",
"@+	c #F0C200",
"#+	c #F2C200",
"$+	c #EDBF00",
"%+	c #CEA600",
"&+	c #BC9800",
"*+	c #987B00",
"=+	c #D6AE00",
"-+	c #A98900",
";+	c #B69500",
">+	c #C8A50B",
",+	c #B6B199",
"'+	c #736B4B",
")+	c #C9A200",
"!+	c #EFC000",
"~+	c #F0C100",
"{+	c #EDBE00",
"]+	c #DFB300",
"^+	c #AA8800",
"/+	c #CFA600",
"(+	c #BC9600",
"_+	c #D3A900",
":+	c #C9A40E",
"<+	c #BFB89E",
"[+	c #A8AAB2",
"}+	c #746C4D",
"|+	c #C39D02",
"1+	c #E8BA00",
"2+	c #D7AD00",
"3+	c #DEB50B",
"4+	c #C2BDA8",
"5+	c #B5B5B7",
"6+	c #6D6648",
"7+	c #C9A100",
"8+	c #F6C600",
"9+	c #F4C400",
"0+	c #F5C500",
"a+	c #A08C3B",
"b+	c #999A9F",
"c+	c #7F764F",
"d+	c #CAA201",
"e+	c #352E11",
"f+	c #22211D",
"g+	c #1D1D1E",
"h+	c #161203",
"i+	c #121212",
"                                            ",
"                                            ",
"                                            ",
"      . + @ # $ % & * = - ; > , ' )         ",
"      ! ~ { ] ^ / ( _ : < [ } | 1 2         ",
"      3 4 5 6 7 8 9 0 a b c d e f g         ",
"      h i j k l m n o p q r s t u v         ",
"      w x y z A B C D E F G H I J K         ",
"      L M N O P Q R S T U V W X Y Z   `     ",
"       ...+.@.#.$.%.&.*.=.-.;.>.,.'.).!.~.  ",
"      {.].^./.(._.:.<.[.}.|.1.2.3.4.5.6.    ",
"      7.8.9.0.a.b.c.d.e.f.g.h.i.j.k.l.      ",
"      m.n.o.p.q.r.s.t.u.v.w.x.y.z.A.        ",
"      B.C.D.E.F.G.H.I.J.K.L.M.N.O.P.        ",
"      Q.R.S.T.U.V.W.X.Y.Z.`. +.+++@+        ",
"      #+$+%+&+*+=+-+;+>+,+N.'+)+!+~+        ",
"      #+{+]+^+/+(+_+:+<+[+}+|+!+!+~+        ",
"      #+!+1+2+!+{+3+4+5+6+7+!+!+!+~+        ",
"      8+9+9+0+9+8+a+b+c+d+9+9+9+9+9+        ",
"                e+f+g+h+                    ",
"                i+                          ",
"                                            "};
