/* XPM */
static const char * types_xpm[] = {
"22 22 103 2",
"  	c None",
". 	c #020202",
"+ 	c #363636",
"@ 	c #151515",
"# 	c #1D1D1D",
"$ 	c #242424",
"% 	c #101010",
"& 	c #272727",
"* 	c #666666",
"= 	c #A4A4A4",
"- 	c #646464",
"; 	c #595959",
"> 	c #B5B5B5",
", 	c #636363",
"' 	c #050505",
") 	c #050401",
"! 	c #0034D0",
"~ 	c #0033CC",
"{ 	c #330098",
"] 	c #595858",
"^ 	c #252525",
"/ 	c #1E1E1E",
"( 	c #0E0F0E",
"_ 	c #0032C8",
": 	c #0033CE",
"< 	c #373D3D",
"[ 	c #2C2D2D",
"} 	c #181B1B",
"| 	c #1D1E1B",
"1 	c #1A2F6E",
"2 	c #670098",
"3 	c #255F5F",
"4 	c #494D4D",
"5 	c #333434",
"6 	c #202021",
"7 	c #2B2A27",
"8 	c #406D6D",
"9 	c #4C4C4C",
"0 	c #232323",
"a 	c #1C1C1C",
"b 	c #474746",
"c 	c #660098",
"d 	c #616261",
"e 	c #454545",
"f 	c #191919",
"g 	c #424242",
"h 	c #00CC00",
"i 	c #6F6F6F",
"j 	c #4A4A4A",
"k 	c #2B2B2B",
"l 	c #464646",
"m 	c #CC0099",
"n 	c #414141",
"o 	c #282828",
"p 	c #202020",
"q 	c #313131",
"r 	c #3F3F3F",
"s 	c #292929",
"t 	c #333333",
"u 	c #2E2E2E",
"v 	c #1F1F1F",
"w 	c #373737",
"x 	c #262626",
"y 	c #0B0B0C",
"z 	c #98FF00",
"A 	c #212121",
"B 	c #222222",
"C 	c #14130E",
"D 	c #3B331C",
"E 	c #FF0000",
"F 	c #151514",
"G 	c #34322D",
"H 	c #776A40",
"I 	c #A89041",
"J 	c #797465",
"K 	c #D2BF83",
"L 	c #BB9F47",
"M 	c #A28B43",
"N 	c #BAAE8B",
"O 	c #C4AE6C",
"P 	c #B59C49",
"Q 	c #A7986B",
"R 	c #8D7D4A",
"S 	c #483E1E",
"T 	c #080D05",
"U 	c #88BD40",
"V 	c #77A647",
"W 	c #6E9A54",
"X 	c #648E5F",
"Y 	c #5B806B",
"Z 	c #517476",
"` 	c #496981",
" .	c #405D8D",
"..	c #385197",
"+.	c #414C8F",
"@.	c #4F4984",
"#.	c #5E4678",
"$.	c #6D436D",
"%.	c #7C4061",
"&.	c #8A3D56",
"*.	c #963948",
"=.	c #802C31",
"-.	c #5E1F1F",
"    .                                       ",
"+ @ # $                                     ",
"% & * = -                                   ",
"  ; > , ' )   ! ~ ~     { { {               ",
"    ] ^ / (   _ : ~     { { {               ",
"      < [ } | 1                   2 2       ",
"      3 4 5 6 7                 2 2 2       ",
"        8 9 0 a b                 2 c       ",
"          d e 0 f g                         ",
"  h h h     i j 0 k l                 m m   ",
"  h h h       n o p q               m m m m ",
"  h h h       e r o / s               m m   ",
"                t u ^ v w                   ",
"                  a # x a y                 ",
"  z z z             @ A B C D         E E   ",
"  z z z               F G H I       E E E   ",
"    z                   J K L M       E E   ",
"                          N O P             ",
"                            Q R S           ",
"                                T           ",
"U V W X Y Z `  ...+.@.#.$.%.&.*.=.-.        ",
"                                            "};
