/* XPM */
static const char * uninstall_del_xpm[] = {
"22 22 96 2",
"  	c None",
". 	c #505050",
"+ 	c #3F3F3F",
"@ 	c #201F1F",
"# 	c #363232",
"$ 	c #2B0808",
"% 	c #2A2424",
"& 	c #320707",
"* 	c #580808",
"= 	c #700A0A",
"- 	c #8D1212",
"; 	c #A01D1D",
"> 	c #2F2929",
", 	c #2F0505",
"' 	c #590707",
") 	c #720C0C",
"! 	c #921A1A",
"~ 	c #A62929",
"{ 	c #AB3333",
"] 	c #AF3E3E",
"^ 	c #B44848",
"/ 	c #B85454",
"( 	c #BD6161",
"_ 	c #C36D6D",
": 	c #C97B7B",
"< 	c #CC8282",
"[ 	c #C06666",
"} 	c #393434",
"| 	c #580707",
"1 	c #730E0E",
"2 	c #941E1E",
"3 	c #A82F2F",
"4 	c #B03E3E",
"5 	c #B64D4D",
"6 	c #BC5C5C",
"7 	c #C26A6A",
"8 	c #C87979",
"9 	c #CF8A8A",
"0 	c #CE8888",
"a 	c #C57272",
"b 	c #3D3838",
"c 	c #300505",
"d 	c #730F0F",
"e 	c #941F1F",
"f 	c #A92F2F",
"g 	c #B13E3E",
"h 	c #C36C6C",
"i 	c #C97979",
"j 	c #B95D5D",
"k 	c #352F2F",
"l 	c #310707",
"m 	c #720D0D",
"n 	c #931D1D",
"o 	c #A82D2D",
"p 	c #AF3C3C",
"q 	c #B54B4B",
"r 	c #BD5B5B",
"s 	c #B95656",
"t 	c #9F4D4D",
"u 	c #A36464",
"v 	c #BB6E6E",
"w 	c #C67575",
"x 	c #BA5757",
"y 	c #292323",
"z 	c #710C0C",
"A 	c #901818",
"B 	c #A62828",
"C 	c #AE3838",
"D 	c #B13C3C",
"E 	c #9D3636",
"F 	c #9D5050",
"G 	c #B86868",
"H 	c #BF6868",
"I 	c #BA5959",
"J 	c #B04141",
"K 	c #241F1F",
"L 	c #300606",
"M 	c #590808",
"N 	c #901212",
"O 	c #902020",
"P 	c #8C2D2D",
"Q 	c #A53D3D",
"R 	c #AE3939",
"S 	c #282222",
"T 	c #2F0404",
"U 	c #6F0A0A",
"V 	c #5C0B0B",
"W 	c #2A2727",
"X 	c #1E0303",
"Y 	c #262626",
"Z 	c #1C1C1C",
"` 	c #141414",
" .	c #111111",
"..	c #121212",
"+.	c #030303",
"@.	c #000000",
"      .                                     ",
"      +                                     ",
"      @                                     ",
"      # $                                   ",
"      % & * = - ;                           ",
"      > , ' ) ! ~ { ] ^ / ( _ : < [         ",
"      } , | 1 2 3 4 5 6 7 8 9 0 a           ",
"      b c | d e f g 5 6 h i j               ",
"      k l | m n o p q r s t u v w x         ",
"      y & * z A B C D E F G H I J           ",
"      K L M = N ; O P Q R                   ",
"      S T M = U V                           ",
"      W X                                   ",
"      Y                                     ",
"      Z                                     ",
"      `                                     ",
"       .                                    ",
"      ..                                    ",
"       .                                    ",
"      +.                                    ",
"      @.                                    ",
"                                            "};
