/* XPM */
static const char * uninstall_xpm[] = {
"22 22 96 2",
"  	c None",
". 	c #2E2E2E",
"+ 	c #303030",
"@ 	c #1D1D1E",
"# 	c #292D31",
"$ 	c #051E37",
"% 	c #003164",
"& 	c #222529",
"* 	c #041D38",
"= 	c #003163",
"- 	c #003E7E",
"; 	c #034F9B",
"> 	c #0C5EB0",
", 	c #26292D",
"' 	c #021C36",
") 	c #013F7E",
"! 	c #0A549F",
"~ 	c #1866B4",
"{ 	c #236EBA",
"] 	c #2C74BC",
"^ 	c #387CC0",
"/ 	c #4685C4",
"( 	c #548EC9",
"_ 	c #5A92CA",
": 	c #669ACE",
"< 	c #6FA0D2",
"[ 	c #518DC8",
"} 	c #2E3135",
"| 	c #011B36",
"1 	c #02407F",
"2 	c #0E58A1",
"3 	c #1F6BB6",
"4 	c #2E75BD",
"5 	c #3E80C2",
"6 	c #4D8AC7",
"7 	c #5C93CB",
"8 	c #6C9ED0",
"9 	c #7EABD6",
"0 	c #7CA9D6",
"a 	c #659ACE",
"b 	c #313538",
"c 	c #021C37",
"d 	c #003063",
"e 	c #03417F",
"f 	c #1059A1",
"g 	c #206BB7",
"h 	c #2F76BE",
"i 	c #3F81C2",
"j 	c #4E8BC7",
"k 	c #6097CD",
"l 	c #6B9ED2",
"m 	c #4F89C3",
"n 	c #3574B3",
"o 	c #2B2E32",
"p 	c #031D38",
"q 	c #0E57A0",
"r 	c #1E6AB7",
"s 	c #3E80C1",
"t 	c #4D8BC9",
"u 	c #4886C4",
"v 	c #4778A9",
"w 	c #688AB2",
"x 	c #769FD1",
"y 	c #7FABDE",
"z 	c #6497D6",
"A 	c #212528",
"B 	c #041E39",
"C 	c #1967B5",
"D 	c #2973BD",
"E 	c #2B73BC",
"F 	c #336BA4",
"G 	c #557FAE",
"H 	c #749ECF",
"I 	c #78A4D9",
"J 	c #6C9DD7",
"K 	c #5A91D3",
"L 	c #1D2024",
"M 	c #05509E",
"N 	c #0C5EAF",
"O 	c #195798",
"P 	c #39699E",
"Q 	c #4D83C4",
"R 	c #538CD0",
"S 	c #1F2326",
"T 	c #013D7A",
"U 	c #044383",
"V 	c #232527",
"W 	c #011427",
"X 	c #242424",
"Y 	c #1B1B1B",
"Z 	c #151515",
"` 	c #121212",
" .	c #131313",
"..	c #141414",
"+.	c #030303",
"@.	c #000000",
"      .                                     ",
"      +                                     ",
"      @                                     ",
"      # $ %                                 ",
"      & * = - ; >                           ",
"      , ' = ) ! ~ { ] ^ / ( _ : < [         ",
"      } | = 1 2 3 4 5 6 7 8 9 0 a           ",
"      b c d e f g h i j k l m n             ",
"      o p = 1 q r 4 s t u v w x y z         ",
"      A B = ) ! C D E F G H I J K           ",
"      L p = - M N O P Q R                   ",
"      S | % T U                             ",
"      V W                                   ",
"      X                                     ",
"      Y                                     ",
"      Z                                     ",
"      `                                     ",
"       .                                    ",
"      ..                                    ",
"      +.                                    ",
"      @.                                    ",
"                                            "};
